<svg width="67" height="71" viewBox="0 0 67 71" fill="none" xmlns="http://www.w3.org/2000/svg">
<path fill-rule="evenodd" clip-rule="evenodd" d="M0.246231 70.341H14.3114C14.4587 70.341 14.5853 70.2831 14.6819 70.1719C19.1638 65.0122 25.7732 61.7494 33.1447 61.7494C40.5163 61.7494 47.1258 65.0121 51.6077 70.1719C51.7043 70.2831 51.8309 70.341 51.9782 70.341H66.0257C66.1123 70.341 66.1868 70.3 66.2331 70.2268C66.2795 70.1535 66.2845 70.0686 66.2473 69.9903L33.3577 0.757305C33.316 0.66971 33.233 0.617188 33.1359 0.617188C33.0389 0.617188 32.9558 0.66971 32.9142 0.757305L0.0246361 69.9903C-0.0125477 70.0686 -0.00750636 70.1535 0.0388549 70.2268C0.0851299 70.3 0.159627 70.341 0.246231 70.341ZM21.679 53.3117L33.1359 29.1948L44.5884 53.3024C41.0649 51.8362 37.1993 51.0267 33.1447 51.0267C29.0817 51.0267 25.2085 51.8397 21.679 53.3117Z" fill="#DA3937"/>
</svg>
