<svg width="350" height="291" viewBox="0 0 350 291" fill="none" xmlns="http://www.w3.org/2000/svg">
<path d="M167.143 76.7654C168.171 76.7654 169.004 75.9345 169.004 74.9094C169.004 73.8844 168.171 73.0534 167.143 73.0534C166.115 73.0534 165.282 73.8844 165.282 74.9094C165.282 75.9345 166.115 76.7654 167.143 76.7654Z" fill="#D4C2A1"/>
<path d="M329.021 218.285C330.049 218.285 330.882 217.454 330.882 216.429C330.882 215.404 330.049 214.573 329.021 214.573C327.993 214.573 327.16 215.404 327.16 216.429C327.16 217.454 327.993 218.285 329.021 218.285Z" fill="#D4C2A1"/>
<path d="M303.079 45.9094C304.107 45.9094 304.94 45.0785 304.94 44.0534C304.94 43.0284 304.107 42.1974 303.079 42.1974C302.051 42.1974 301.217 43.0284 301.217 44.0534C301.217 45.0785 302.051 45.9094 303.079 45.9094Z" fill="#D4C2A1"/>
<path d="M286.56 265.845C287.588 265.845 288.421 265.014 288.421 263.989C288.421 262.964 287.588 262.133 286.56 262.133C285.532 262.133 284.698 262.964 284.698 263.989C284.698 265.014 285.532 265.845 286.56 265.845Z" fill="#D4C2A1"/>
<path d="M55.5215 78.5054C56.5495 78.5054 57.3828 77.6745 57.3828 76.6494C57.3828 75.6244 56.5495 74.7934 55.5215 74.7934C54.4935 74.7934 53.6602 75.6244 53.6602 76.6494C53.6602 77.6745 54.4935 78.5054 55.5215 78.5054Z" fill="#D4C2A1"/>
<path d="M35.8608 95.3254C36.8888 95.3254 37.7222 94.4945 37.7222 93.4694C37.7222 92.4444 36.8888 91.6134 35.8608 91.6134C34.8329 91.6134 33.9995 92.4444 33.9995 93.4694C33.9995 94.4945 34.8329 95.3254 35.8608 95.3254Z" fill="#D4C2A1"/>
<path d="M185.582 35.9334C186.61 35.9334 187.443 35.1025 187.443 34.0774C187.443 33.0524 186.61 32.2214 185.582 32.2214C184.554 32.2214 183.721 33.0524 183.721 34.0774C183.721 35.1025 184.554 35.9334 185.582 35.9334Z" fill="#D4C2A1"/>
<path d="M146.029 22.0134C147.057 22.0134 147.89 21.1825 147.89 20.1574C147.89 19.1324 147.057 18.3014 146.029 18.3014C145.001 18.3014 144.167 19.1324 144.167 20.1574C144.167 21.1825 145.001 22.0134 146.029 22.0134Z" fill="#D4C2A1"/>
<path d="M69.4814 252.041C70.5094 252.041 71.3428 251.21 71.3428 250.185C71.3428 249.16 70.5094 248.329 69.4814 248.329C68.4535 248.329 67.6201 249.16 67.6201 250.185C67.6201 251.21 68.4535 252.041 69.4814 252.041Z" fill="#D4C2A1"/>
<path d="M31.0913 258.305C32.1193 258.305 32.9526 257.474 32.9526 256.449C32.9526 255.424 32.1193 254.593 31.0913 254.593C30.0633 254.593 29.23 255.424 29.23 256.449C29.23 257.474 30.0633 258.305 31.0913 258.305Z" fill="#D4C2A1"/>
<path d="M264.921 35.1214C265.949 35.1214 266.783 34.2905 266.783 33.2654C266.783 32.2404 265.949 31.4094 264.921 31.4094C263.893 31.4094 263.06 32.2404 263.06 33.2654C263.06 34.2905 263.893 35.1214 264.921 35.1214Z" fill="#D4C2A1"/>
<path d="M38.0713 43.7054C39.0993 43.7054 39.9326 42.8745 39.9326 41.8494C39.9326 40.8244 39.0993 39.9934 38.0713 39.9934C37.0433 39.9934 36.21 40.8244 36.21 41.8494C36.21 42.8745 37.0433 43.7054 38.0713 43.7054Z" fill="#D4C2A1"/>
<path d="M78.5552 54.0294V62.0334C78.5552 63.1354 80.3002 63.1354 80.3002 62.0334V54.0294C80.3002 52.9274 78.5552 52.9274 78.5552 54.0294Z" fill="#D4C2A1"/>
<path d="M75.4143 58.9014H83.4413C84.5465 58.9014 84.5465 57.1614 83.4413 57.1614H75.4143C74.3092 57.1614 74.3092 58.9014 75.4143 58.9014Z" fill="#D4C2A1"/>
<path d="M126.659 23.0574V31.0614C126.659 32.1634 128.404 32.1634 128.404 31.0614V23.0574C128.404 21.9554 126.659 21.9554 126.659 23.0574Z" fill="#D4C2A1"/>
<path d="M123.576 27.9294H131.603C132.709 27.9294 132.709 26.1894 131.603 26.1894H123.576C122.471 26.1894 122.471 27.9294 123.576 27.9294Z" fill="#D4C2A1"/>
<path d="M193.551 47.9974V56.0014C193.551 57.1034 195.296 57.1034 195.296 56.0014V47.9974C195.296 46.8954 193.551 46.8954 193.551 47.9974Z" fill="#D4C2A1"/>
<path d="M190.468 52.8694H198.495C199.6 52.8694 199.6 51.1294 198.495 51.1294H190.468C189.363 51.1294 189.363 52.8694 190.468 52.8694Z" fill="#D4C2A1"/>
<path d="M37.8965 122.237V130.241C37.8965 131.343 39.6415 131.343 39.6415 130.241V122.237C39.6415 121.135 37.8965 121.135 37.8965 122.237Z" fill="#D4C2A1"/>
<path d="M34.7556 127.109H42.7826C43.8878 127.109 43.8878 125.369 42.7826 125.369H34.7556C33.6505 125.369 33.6505 127.109 34.7556 127.109Z" fill="#D4C2A1"/>
<path d="M38.4785 227.797V235.801C38.4785 236.903 40.2235 236.903 40.2235 235.801V227.797C40.2235 226.695 38.4785 226.695 38.4785 227.797Z" fill="#D4C2A1"/>
<path d="M35.3377 232.669H43.3647C44.4698 232.669 44.4698 230.929 43.3647 230.929H35.3377C34.2325 230.929 34.2325 232.669 35.3377 232.669Z" fill="#D4C2A1"/>
<path d="M262.42 69.4574V77.4614C262.42 78.5634 264.165 78.5634 264.165 77.4614V69.4574C264.165 68.3554 262.42 68.3554 262.42 69.4574Z" fill="#D4C2A1"/>
<path d="M259.279 74.3294H267.306C268.411 74.3294 268.411 72.5894 267.306 72.5894H259.279C258.174 72.5894 258.174 74.3294 259.279 74.3294Z" fill="#D4C2A1"/>
<path d="M317.388 184.587V192.591C317.388 193.693 319.133 193.693 319.133 192.591V184.587C319.133 183.485 317.388 183.485 317.388 184.587Z" fill="#D4C2A1"/>
<path d="M314.305 189.459H322.332C323.437 189.459 323.437 187.719 322.332 187.719H314.305C313.2 187.719 313.2 189.459 314.305 189.459Z" fill="#D4C2A1"/>
<path d="M313.316 251.287V259.291C313.316 260.393 315.061 260.393 315.061 259.291V251.287C315.061 250.185 313.316 250.185 313.316 251.287Z" fill="#D4C2A1"/>
<path d="M310.233 256.159H318.26C319.365 256.159 319.365 254.419 318.26 254.419H310.233C309.128 254.419 309.128 256.159 310.233 256.159Z" fill="#D4C2A1"/>
<path d="M291.968 46.9534C291.968 46.9534 283.243 46.6634 281.498 65.2234C279.753 83.7834 281.789 81.7534 282.545 82.0434C283.302 82.3334 290.98 71.8934 294.062 62.3234C297.145 52.7534 295.109 46.9534 292.027 46.9534H291.968Z" fill="#404040"/>
<path d="M323.553 60.4094C321.692 55.8274 315.119 53.4494 304.474 65.6294C290.922 81.1734 289.933 86.0454 291.096 86.6254C292.259 87.2054 306.219 81.9854 313.083 77.2294C319.947 72.4734 326.869 68.4714 323.553 60.4094Z" fill="#404040"/>
<path d="M293.423 95.3835C293.423 95.3835 291.852 92.7734 308.662 89.4094C325.414 86.0454 328.73 88.9454 329.195 91.8454C329.661 94.7454 324.716 101.299 308.837 100.429C292.957 99.5594 293.423 95.3835 293.423 95.3835Z" fill="#404040"/>
<path d="M291.387 45.2134C291.387 45.2134 282.662 44.9234 280.917 63.4834C279.172 82.0434 281.208 80.0134 281.964 80.3034C282.72 80.5934 290.398 70.1534 293.481 60.5834C296.564 51.0134 294.528 45.2134 291.445 45.2134H291.387Z" fill="#FEF0D6"/>
<path d="M322.972 58.6694C321.11 54.0874 314.537 51.7094 303.893 63.8894C290.34 79.4334 289.351 84.3054 290.515 84.8854C291.678 85.4654 305.638 80.2454 312.502 75.4894C319.365 70.7334 326.287 66.7314 322.972 58.6694Z" fill="#FEF0D6"/>
<path d="M292.841 93.6434C292.841 93.6434 291.271 91.0334 308.081 87.6694C324.833 84.3054 328.148 87.2054 328.614 90.1054C329.079 93.0054 324.135 99.5594 308.255 98.6894C292.376 97.8194 292.841 93.6434 292.841 93.6434Z" fill="#FEF0D6"/>
<path d="M74.7744 143.755C80.5329 152.455 79.3695 173.103 66.9219 181.977C54.8232 190.561 49.2974 186.269 34.8139 184.529C27.6012 183.659 24.9837 185.747 24.402 188.415C23.8204 191.083 25.2745 194.331 26.0889 195.723C27.7175 198.449 25.0419 205.235 17.9455 201.639C13.9902 199.609 10.9655 193.403 11.3145 187.545C11.6054 182.905 13.9902 178.381 19.6324 176.293C32.429 171.479 50.228 182.847 60.1164 173.103C70.0047 163.359 64.8279 146.365 64.8279 146.365L74.7744 143.871V143.755Z" fill="#FEF0D6"/>
<path d="M24.4601 188.415C23.8785 191.083 25.3326 194.331 26.147 195.723C27.7756 198.449 25.1 205.235 18.0036 201.639C14.0483 199.609 11.0236 193.403 11.3726 187.545C11.9543 186.269 13.4666 184.181 16.6076 184.297C20.563 184.413 23.2968 185.979 24.4601 188.473V188.415Z" fill="#FBA621"/>
<path d="M140.735 86.3354L65.1767 167.651C65.1767 167.651 51.9147 159.647 51.7983 136.853C51.7983 133.315 52.0892 129.371 52.8453 125.079C53.5433 121.077 54.5903 116.669 56.1027 111.971C57.0333 109.071 58.0803 106.287 59.2437 103.677C60.756 100.255 62.4428 97.1234 64.3042 94.2234C68.085 88.1914 72.4475 83.2034 76.9845 79.0854C79.3112 76.9394 81.6378 75.0834 83.9645 73.4014C97.401 63.5994 109.965 60.8154 109.965 60.8154L140.793 86.3354H140.735Z" fill="#FEF0D6"/>
<path d="M88.5014 87.3214C86.7564 91.2654 79.9509 90.6854 76.9263 79.0854C79.2529 76.9394 81.5796 75.0834 83.9063 73.4014C85.7676 76.5334 89.9556 84.1314 88.5596 87.3214H88.5014Z" fill="#FBA621"/>
<path d="M71.4005 108.723C69.7137 111.739 62.9082 109.245 59.2437 103.677C60.756 100.255 62.4428 97.1234 64.3042 94.2234C66.8053 97.3554 73.0292 105.823 71.4005 108.723Z" fill="#FBA621"/>
<path d="M62.1519 133.257C61.3376 138.129 55.5209 137.665 51.8564 136.853C51.8564 133.315 52.1473 129.371 52.9034 125.079C56.4516 125.833 63.0826 127.979 62.2101 133.257H62.1519Z" fill="#FBA621"/>
<path d="M96.2377 96.0794C96.2377 96.0794 63.9552 101.009 59.8835 132.039C55.8118 163.069 65.1185 224.549 83.1502 232.959C101.182 241.369 132.301 244.849 177.089 245.139C221.878 245.429 284.407 238.469 293.423 213.529C302.439 188.589 309.709 125.079 282.662 103.619C255.614 82.1594 197.448 80.1294 96.2377 96.0794Z" fill="#404040"/>
<path d="M100.309 92.0194C100.309 92.0194 68.0269 96.9494 63.9553 127.979C59.8836 159.009 69.1903 220.489 87.2219 228.899C105.254 237.309 136.373 240.789 181.161 241.079C225.949 241.369 288.479 234.409 297.494 209.469C306.51 184.529 313.781 121.019 286.734 99.5594C259.686 78.0994 201.519 76.0694 100.309 92.0194Z" fill="#FF777C"/>
<path d="M171.215 80.5934C171.215 80.5934 178.02 87.6694 177.322 98.2834C176.624 108.897 168.307 106.751 161.327 90.6854L171.273 80.5934H171.215Z" fill="#FBA621"/>
<mask id="mask0_177_333" style="mask-type:luminance" maskUnits="userSpaceOnUse" x="161" y="80" width="17" height="25">
<path d="M171.215 80.5934C171.215 80.5934 178.02 87.6694 177.322 98.2834C176.624 108.897 168.307 106.751 161.327 90.6854L171.273 80.5934H171.215Z" fill="white"/>
</mask>
<g mask="url(#mask0_177_333)">
<path d="M172.32 106.113C172.669 105.185 172.844 104.141 172.902 103.155C173.076 100.951 172.727 98.7475 171.797 96.7175C171.68 96.4275 171.273 96.3695 170.982 96.4855C170.691 96.6595 170.633 97.0075 170.75 97.2975C171.564 99.1535 171.855 101.183 171.68 103.213C171.622 104.083 171.448 104.953 171.157 105.765C170.924 106.461 172.029 106.751 172.262 106.055L172.32 106.113Z" fill="#363636"/>
<path d="M175.694 104.837C176.101 103.793 176.334 102.633 176.392 101.531C176.566 99.4435 176.217 97.2975 174.879 95.6155C174.705 95.3835 174.24 95.4415 174.065 95.6155C173.832 95.8475 173.891 96.1955 174.065 96.4275C175.228 97.9355 175.403 99.9075 175.228 101.705C175.112 102.633 174.938 103.619 174.589 104.547C174.472 104.837 174.705 105.185 174.996 105.243C175.345 105.359 175.577 105.127 175.694 104.837Z" fill="#363636"/>
</g>
<path d="M149.053 41.5594C149.053 41.5594 160.919 35.8174 171.913 35.1794C171.913 35.1794 175.519 47.3014 169.353 58.3214L149.053 41.5594Z" fill="#FBA621"/>
<path d="M126.543 43.7634L116.887 56.2334L108.569 67.0214C96.9361 54.5514 102.404 33.6714 102.404 33.6714C117.294 35.9334 126.543 43.7634 126.543 43.7634Z" fill="#FF777C"/>
<path d="M126.543 43.7634L116.887 56.2334C114.851 50.8394 110.314 41.1534 102.404 33.6714C117.294 35.9334 126.543 43.7634 126.543 43.7634Z" fill="#FBA621"/>
<path d="M174.123 79.4914C165.98 99.7914 134.802 101.531 120.493 93.0054C116.363 90.5114 113.106 87.4954 110.779 84.0154C106.882 78.1574 105.719 71.0814 107.697 63.8314C108.569 60.6994 109.965 57.5094 112.001 54.3194C116.363 47.5334 122.529 43.8794 127.939 41.9074C131.836 40.4574 135.326 39.8774 137.478 39.7034C138.874 39.5874 139.688 39.5874 139.688 39.5874C140.095 39.5874 140.444 39.5874 140.852 39.5294C143.934 39.4714 147.134 39.9934 150.275 40.9794C165.921 45.9674 180.696 63.0774 174.065 79.6074L174.123 79.4914Z" fill="#FEF0D6"/>
<path d="M120.493 93.0054C117.876 91.7294 115.491 90.0474 113.397 88.0174C112.35 86.9734 111.419 85.8714 110.547 84.7114C109.733 83.4934 108.976 82.2174 108.337 80.8834C107.115 78.2154 106.417 75.3154 106.301 72.3574C106.184 69.4574 106.65 66.4994 107.639 63.8314C107.406 65.2234 107.231 66.6734 107.115 68.0654C106.999 69.4574 107.115 70.9074 107.173 72.2994C107.29 73.6914 107.522 75.0834 107.929 76.4174C108.278 77.7514 108.744 79.0854 109.325 80.3614C110.489 82.9134 112.059 85.2334 113.979 87.3794C115.898 89.4674 118.05 91.3234 120.377 93.0054H120.493Z" fill="#363636"/>
<path d="M137.769 49.1574C134.162 45.5034 130.091 43.0094 127.938 41.8494C131.836 40.3994 135.326 39.8194 137.478 39.6454C139.106 41.1534 140.561 43.1834 141.549 45.3874C143.411 49.5634 142.887 54.3774 137.769 49.2154V49.1574Z" fill="#FBA621"/>
<path d="M149.46 48.4034C147.017 46.1414 142.829 41.5594 140.852 39.4134C143.934 39.3554 147.134 39.8774 150.275 40.8634C152.194 42.9514 154.288 45.7934 154.579 48.1134C155.161 52.3474 152.659 51.4774 149.402 48.4034H149.46Z" fill="#FBA621"/>
<path d="M135.035 56.1174C135.035 56.0594 135.093 56.0014 135.151 55.9434C135.151 55.8854 135.268 55.8274 135.268 55.7114C135.268 55.7114 135.268 55.6534 135.326 55.5954C135.675 55.1314 136.024 54.8414 136.547 54.6094C137.071 54.3774 137.769 54.3774 138.351 54.4934C138.467 54.4934 138.641 54.5514 138.758 54.6094C138.758 54.6094 138.99 54.7254 138.874 54.6094C138.874 54.6094 138.932 54.6094 138.99 54.6094C139.107 54.6094 139.165 54.7254 139.281 54.7834C139.921 55.1894 140.503 54.2034 139.863 53.7974C138.816 53.1014 137.304 52.9274 136.14 53.4494C135.21 53.8554 134.453 54.6094 133.988 55.4794C133.639 56.1174 134.628 56.7554 134.977 56.0594L135.035 56.1174Z" fill="#363636"/>
<path d="M158.942 53.7394C158.825 53.7974 159.058 53.6234 158.942 53.7394C159 53.7394 159.116 53.6234 159.174 53.5654C159.232 53.5654 159.291 53.5074 159.349 53.4494C159.349 53.4494 159.349 53.4494 159.291 53.4494C159.291 53.4494 159.349 53.4494 159.407 53.4494C159.523 53.4494 159.756 53.3334 159.872 53.3334C159.872 53.3334 159.989 53.3334 160.047 53.3334C160.163 53.3334 160.221 53.3334 160.338 53.3334C160.338 53.3334 160.454 53.3334 160.512 53.3334C160.512 53.3334 160.628 53.3334 160.687 53.3334H160.745C160.861 53.3334 160.977 53.4494 161.036 53.5074C161.094 53.5074 161.152 53.5654 161.21 53.6234C161.152 53.6234 161.326 53.6814 161.326 53.7394C161.617 53.9714 161.85 54.2614 162.024 54.5514C162.199 54.7834 162.548 54.8994 162.839 54.7834C163.071 54.6094 163.246 54.2614 163.071 53.9714C162.432 53.0434 161.501 52.2314 160.338 52.0574C159.698 51.9994 159 52.1734 158.476 52.4634C158.36 52.5214 158.185 52.6374 158.069 52.7534C157.836 52.9854 157.836 53.3334 158.069 53.5654C158.302 53.7974 158.651 53.7974 158.883 53.5654L158.942 53.7394Z" fill="#363636"/>
<path d="M133.406 62.1494C133.581 64.2954 134.221 66.6734 135.675 68.2974C136.78 69.5154 138.35 69.8634 139.921 69.5734C141.433 69.3414 142.655 68.2974 143.178 66.9054C143.993 64.7594 143.004 62.2654 141.899 60.4094C141.375 59.4234 139.863 60.2934 140.386 61.2794C140.91 62.1494 141.317 63.0774 141.55 64.0634C141.55 64.2374 141.608 64.4694 141.666 64.6434C141.666 64.5274 141.666 64.7594 141.666 64.8174C141.666 64.9334 141.666 65.0494 141.666 65.1074C141.666 65.2814 141.666 65.4554 141.666 65.6294C141.666 65.6874 141.666 65.8614 141.666 65.6874C141.666 65.8034 141.666 65.8614 141.608 65.9774C141.608 66.0934 141.55 66.2674 141.491 66.3834C141.491 66.2674 141.491 66.5574 141.491 66.3834C141.491 66.4414 141.433 66.5574 141.375 66.6154C141.317 66.7314 141.259 66.8474 141.142 66.9634C141.084 67.0214 141.026 67.0794 140.968 67.1374C140.968 67.1374 140.852 67.1954 140.852 67.2534C140.735 67.3694 140.968 67.1954 140.852 67.2534C140.735 67.3114 140.619 67.4274 140.444 67.4854C140.386 67.4854 140.328 67.4854 140.27 67.5434C140.154 67.5434 139.979 67.6594 139.863 67.6594C139.805 67.6594 139.688 67.6594 139.63 67.6594C139.456 67.6594 139.572 67.6594 139.63 67.6594C139.456 67.6594 139.339 67.6594 139.165 67.6594C138.99 67.6594 138.874 67.6594 138.699 67.6594C138.641 67.6594 138.525 67.6594 138.467 67.6594C138.641 67.6594 138.467 67.6594 138.35 67.6594C138.176 67.6594 138.06 67.6014 137.943 67.5434C137.769 67.5434 138.06 67.6014 137.943 67.5434C137.885 67.5434 137.827 67.4854 137.711 67.4274C137.711 67.4274 137.594 67.3694 137.536 67.3114C137.478 67.3114 137.362 67.1374 137.478 67.3114C137.362 67.1954 137.245 67.1374 137.129 67.0214C137.013 66.9054 136.954 66.7894 136.838 66.6734C136.838 66.6154 136.722 66.5574 136.722 66.4994C136.547 66.2674 136.431 65.9774 136.256 65.6874C136.256 65.6294 136.198 65.5714 136.14 65.5134C136.14 65.5134 136.14 65.4554 136.14 65.3974C136.082 65.2234 136.024 65.1074 135.966 64.9334C135.849 64.6434 135.791 64.3534 135.675 64.0634C135.558 63.5414 135.442 63.0194 135.326 62.4974C135.326 62.3814 135.326 62.3234 135.326 62.2074C135.326 62.0334 135.326 62.4394 135.326 62.2654C135.326 62.2654 135.326 62.2074 135.326 62.1494C135.326 62.0914 135.326 62.0334 135.326 61.9754C135.326 61.5114 134.977 61.1054 134.453 61.1054C133.988 61.1054 133.523 61.5114 133.581 61.9754L133.406 62.1494Z" fill="#363636"/>
<path d="M157.778 60.8154C157.836 61.7434 158.011 62.6714 158.301 63.5994C158.709 65.1074 159.407 66.7894 160.628 67.7754C161.908 68.7614 164.118 69.2254 165.34 67.8334C166.387 66.6154 166.154 64.7594 165.805 63.3674C165.514 62.2654 165.165 61.1634 164.642 60.0614C164.467 59.6554 163.827 59.5394 163.42 59.7714C162.955 60.0034 162.897 60.5254 163.129 60.9894C163.129 61.0474 163.129 61.1054 163.187 61.1634C163.071 60.9314 163.246 61.3374 163.187 61.1634C163.187 61.2794 163.246 61.3374 163.304 61.4534C163.536 61.9754 163.711 62.5554 163.885 63.0774C164.002 63.3674 164.06 63.7154 164.118 64.0634C164.118 64.2374 164.176 64.3534 164.234 64.5274C164.234 64.5854 164.234 64.7014 164.234 64.7594C164.234 64.5274 164.234 64.7594 164.234 64.8754C164.234 65.2234 164.234 65.5134 164.234 65.8614C164.234 65.9194 164.234 65.9774 164.234 66.0354C164.234 66.1514 164.118 66.3254 164.118 66.4414C164.118 66.2094 164.118 66.3834 164.118 66.4414C164.118 66.4414 164.06 66.5574 164.002 66.6154C163.944 66.7314 164.118 66.4994 164.002 66.6154C164.002 66.6154 163.885 66.7314 163.827 66.7894C163.885 66.7894 163.944 66.6154 163.827 66.7894C163.595 66.8474 163.769 66.7894 163.827 66.7894C163.653 66.7894 163.536 66.9054 163.362 66.9054C163.595 66.9054 163.362 66.9054 163.246 66.9054C163.187 66.9054 163.071 66.9054 163.013 66.9054C163.013 66.9054 162.722 66.9054 162.838 66.9054C162.955 66.9054 162.664 66.9054 162.606 66.9054C162.548 66.9054 162.431 66.9054 162.373 66.8474C162.373 66.8474 162.315 66.8474 162.257 66.8474C162.14 66.8474 162.373 66.9054 162.257 66.8474C162.082 66.7894 161.966 66.6734 161.791 66.5574C161.791 66.5574 161.733 66.5574 161.675 66.4994C161.617 66.4994 161.559 66.3834 161.501 66.3254C161.384 66.2094 161.268 66.0934 161.152 65.9774C161.152 65.9774 161.152 65.9194 161.093 65.8614C161.035 65.7454 161.21 65.9774 161.093 65.8614C161.093 65.8034 160.977 65.7454 160.977 65.6874C160.861 65.5134 160.744 65.3974 160.686 65.2234C160.628 65.0494 160.512 64.9334 160.454 64.7594C160.454 64.7014 160.395 64.5854 160.337 64.5274C160.337 64.5274 160.337 64.4694 160.337 64.4114C160.337 64.4694 160.337 64.5274 160.337 64.4114C160.221 64.0634 160.105 63.7734 159.988 63.4254C159.814 62.7874 159.639 62.1494 159.523 61.5114C159.523 61.3954 159.523 61.2794 159.523 61.1634C159.523 61.0474 159.523 61.3954 159.523 61.2214V61.1054C159.523 61.0474 159.523 60.9314 159.523 60.8734C159.523 60.4094 159.174 60.0034 158.65 60.0034C158.185 60.0034 157.72 60.4094 157.778 60.8734V60.8154Z" fill="#363636"/>
<path d="M142.189 72.0094C138.467 71.7774 134.686 71.7774 131.021 72.2994C130.731 72.2994 130.556 72.7634 130.614 72.9954C130.731 73.3434 131.021 73.4594 131.312 73.4014C133.697 73.0534 136.14 72.9954 138.583 73.0534C139.805 73.0534 140.968 73.0534 142.189 73.1694C142.946 73.1694 142.946 72.0674 142.189 72.0094Z" fill="#363636"/>
<path d="M141.782 73.9814C140.735 74.3294 139.688 74.6774 138.7 75.0834C136.664 75.8954 134.628 76.7654 132.767 77.9834C132.127 78.3894 132.767 79.3754 133.348 78.9694C136.024 77.2874 139.049 76.0694 142.073 75.0834C142.771 74.8514 142.48 73.7494 141.782 73.9814Z" fill="#363636"/>
<path d="M136.256 82.1014C136.896 81.6374 137.303 81.2894 137.943 80.8254C139.048 80.0134 140.154 79.1434 141.259 78.3894C141.724 78.0414 142.189 77.7514 142.713 77.4614C143.353 77.1134 142.771 76.1274 142.131 76.4754C141.084 76.9974 140.154 77.7515 139.165 78.4475C138.118 79.2015 137.071 80.0135 136.082 80.7675C135.849 80.9415 135.617 81.1154 135.442 81.2894C135.209 81.4634 135.209 81.9274 135.442 82.1014C135.675 82.3334 136.024 82.2754 136.256 82.1014Z" fill="#363636"/>
<path d="M165.107 71.8934C165.747 71.4874 166.445 71.1394 167.085 70.7914C168.19 70.2114 169.237 69.6894 170.4 69.3994C171.157 69.2254 170.808 68.1234 170.11 68.2974C168.888 68.5874 167.667 69.1674 166.561 69.7474C165.863 70.0954 165.165 70.4434 164.526 70.8494C163.886 71.2554 164.467 72.2414 165.107 71.8354V71.8934Z" fill="#363636"/>
<path d="M165.34 73.7494C166.154 73.6914 166.969 73.6334 167.783 73.6334C169.063 73.6334 170.517 73.5754 171.738 73.8074C172.029 73.8074 172.378 73.7494 172.436 73.4014C172.495 73.1114 172.32 72.7634 172.029 72.7054C170.633 72.4734 169.237 72.4734 167.841 72.4734C167.027 72.4734 166.154 72.4734 165.34 72.5894C164.584 72.5894 164.584 73.8074 165.34 73.7494Z" fill="#363636"/>
<path d="M165.282 75.6054C167.259 76.0694 169.353 76.8234 170.982 77.9834C171.215 78.1574 171.622 77.9834 171.796 77.7514C171.971 77.4614 171.796 77.1134 171.564 76.9394C170.4 76.1274 169.062 75.5474 167.725 75.0834C167.027 74.8514 166.329 74.6194 165.572 74.4454C164.816 74.2714 164.525 75.3734 165.282 75.5474V75.6054Z" fill="#363636"/>
<path d="M154.521 73.1694C154.87 74.2134 155.684 75.2574 156.789 75.5474C157.662 75.7794 158.651 75.5474 159.291 74.9674C159.814 74.4454 160.047 73.6334 160.047 72.8794C160.047 72.1834 159.814 71.3134 159.232 70.9074C159 70.7334 158.651 70.6754 158.418 70.9074C158.244 71.0814 158.185 71.5454 158.418 71.7194C158.418 71.7194 158.476 71.7774 158.534 71.8354C158.476 71.7194 158.593 71.8934 158.534 71.8354C158.534 71.8354 158.709 72.1254 158.709 72.1834C158.709 72.1834 158.709 72.2414 158.709 72.2994C158.709 72.2994 158.709 72.4154 158.709 72.4734C158.709 72.5314 158.709 72.5894 158.709 72.6474C158.709 72.6474 158.709 72.7054 158.709 72.7634C158.709 72.6474 158.709 72.9374 158.709 72.7634C158.709 72.8794 158.709 73.0534 158.709 73.1694C158.709 73.2274 158.709 73.2854 158.709 73.4014C158.709 73.2854 158.709 73.5174 158.709 73.4014C158.709 73.4014 158.709 73.4594 158.709 73.5174C158.709 73.5754 158.709 73.6334 158.709 73.7494C158.709 73.8654 158.709 73.8074 158.709 73.8654C158.709 73.9234 158.651 73.9814 158.593 74.0394C158.593 74.0394 158.593 74.0974 158.593 74.1554C158.593 74.1554 158.476 74.2714 158.476 74.3294C158.476 74.3294 158.36 74.4454 158.302 74.4454C158.302 74.4454 158.244 74.4454 158.185 74.4454C158.185 74.4454 158.185 74.4454 158.127 74.4454C158.069 74.4454 157.953 74.4454 157.895 74.5034H157.778C157.662 74.5034 157.604 74.5034 157.487 74.5034C157.487 74.5034 157.429 74.5034 157.371 74.5034C157.371 74.5034 157.371 74.5034 157.313 74.5034C157.255 74.5034 157.138 74.5034 157.08 74.4454C157.08 74.4454 157.022 74.4454 156.964 74.4454C156.848 74.4454 157.08 74.5034 156.964 74.4454C156.906 74.4454 156.848 74.3874 156.789 74.3294C156.789 74.3294 156.731 74.3294 156.673 74.2714C156.557 74.2134 156.499 74.0974 156.382 73.9814C156.382 73.9814 156.266 73.8654 156.266 73.8074C156.266 73.8074 156.266 73.7494 156.208 73.6914C156.091 73.5174 155.917 73.2854 155.859 73.0534C155.859 72.9954 155.917 73.2274 155.859 73.0534C155.859 73.0534 155.859 72.9954 155.859 72.9374C155.859 72.9374 155.859 72.9374 155.859 72.8794C155.742 72.5894 155.452 72.3574 155.161 72.4734C154.87 72.5894 154.637 72.8794 154.754 73.1694H154.521Z" fill="#363636"/>
<path d="M153.823 69.7474C153.881 69.8634 153.939 69.9794 153.998 70.0954C153.998 70.1534 154.056 70.2114 154.114 70.2694C154.114 70.2694 154.23 70.5014 154.114 70.3854C154.172 70.5594 154.23 70.7334 154.288 70.9654C154.579 71.8354 154.637 72.7634 154.288 73.6334C154.056 74.1554 153.707 74.6194 153.3 75.0254C153.125 75.1994 152.892 75.3734 152.66 75.4894C152.543 75.5474 152.485 75.5474 152.369 75.6054C152.369 75.6054 152.311 75.6054 152.253 75.6054C152.253 75.6054 152.02 75.6054 152.136 75.6054C152.02 75.6054 151.962 75.6054 151.845 75.6054C151.845 75.6054 151.729 75.6054 151.671 75.6054C151.438 75.6054 151.438 75.5474 151.206 75.4314C150.973 75.3154 150.74 74.9674 150.566 74.6774C150.333 74.3294 150.217 73.9814 150.159 73.5174C150.159 73.4594 150.159 73.4014 150.159 73.2854C150.159 73.1694 150.159 73.1114 150.159 72.9954C150.159 72.9954 150.159 72.8794 150.159 72.8214C150.159 72.8214 150.159 72.7634 150.159 72.7054C150.159 72.5894 150.159 72.8214 150.159 72.7054C150.508 72.0674 149.519 71.4294 149.17 72.1254C148.704 72.9954 148.937 74.0974 149.286 74.9094C149.693 75.7794 150.508 76.5914 151.496 76.7654C152.892 76.9974 154.056 75.9534 154.812 74.9094C155.568 73.8074 155.743 72.4734 155.51 71.1974C155.394 70.5014 155.103 69.7474 154.696 69.1094C154.288 68.4714 153.3 69.1094 153.707 69.6894L153.823 69.7474Z" fill="#363636"/>
<path d="M157.488 67.1374C157.779 68.4134 156.383 69.8054 154.463 70.2114C152.485 70.6174 150.682 69.9214 150.391 68.6454C150.101 67.3694 151.497 65.9774 153.416 65.5714C155.394 65.1654 157.197 65.8614 157.488 67.1374Z" fill="#FF777C"/>
<path d="M90.8867 92.7154C102.636 94.6874 108.569 99.9654 117.527 106.345C118.283 106.925 119.098 107.447 119.97 108.027C130.324 115.161 144.051 115.973 134.686 101.009C133.348 98.8634 131.778 96.8914 130.149 95.0354C120.086 83.8414 105.37 77.8094 105.37 77.8094" fill="#FEF0D6"/>
<path d="M119.97 108.085C119.156 107.505 118.342 106.925 117.527 106.403C117.411 104.141 117.934 101.125 120.319 98.2834C123.809 94.1074 128.23 94.6294 130.149 95.0934C131.836 96.9494 133.349 98.9214 134.686 101.067C144.051 116.031 130.266 115.219 119.97 108.085Z" fill="#FBA621"/>
<mask id="mask1_177_333" style="mask-type:luminance" maskUnits="userSpaceOnUse" x="117" y="94" width="21" height="20">
<path d="M119.97 108.085C119.156 107.505 118.342 106.925 117.527 106.403C117.411 104.141 117.934 101.125 120.319 98.2834C123.809 94.1074 128.23 94.6294 130.149 95.0934C131.836 96.9494 133.349 98.9214 134.686 101.067C144.051 116.031 130.266 115.219 119.97 108.085Z" fill="white"/>
</mask>
<g mask="url(#mask1_177_333)">
<path d="M134.338 113.943C134.338 113.015 134.047 112.029 133.756 111.159C133.058 109.129 131.953 107.331 130.324 105.881C129.742 105.359 128.928 106.171 129.51 106.693C130.964 108.027 132.011 109.651 132.651 111.507C132.825 112.087 133 112.725 133.116 113.305V113.421C133.116 113.479 133.116 113.595 133.116 113.653C133.116 113.711 133.116 113.769 133.116 113.827C133.116 114.581 134.338 114.581 134.279 113.827L134.338 113.943Z" fill="#363636"/>
<path d="M138.118 111.217C137.886 110.231 137.537 109.245 137.129 108.317C136.373 106.635 135.326 105.011 133.814 103.909C133.581 103.735 133.174 103.909 133 104.141C132.825 104.431 133 104.721 133.232 104.953C134.628 105.939 135.501 107.505 136.141 109.071C136.49 109.883 136.78 110.753 137.013 111.623C137.188 112.377 138.293 112.029 138.118 111.333V111.217Z" fill="#363636"/>
</g>
<path d="M90.8867 92.7154C93.3879 92.8894 95.9472 93.4114 98.3902 94.1654C100.833 94.9194 103.16 96.0214 105.37 97.2394C107.581 98.5154 109.675 99.9654 111.652 101.531C113.63 103.097 115.608 104.663 117.527 106.345C115.317 105.069 113.223 103.677 111.129 102.285C109.035 100.893 106.941 99.5014 104.789 98.2834C102.636 97.0074 100.368 95.9634 98.0994 95.0354C95.7727 94.1074 93.3879 93.4114 90.9449 92.7154H90.8867Z" fill="#363636"/>
<path d="M134.686 101.067C133.755 99.7914 132.767 98.5734 131.72 97.4134C131.196 96.8334 130.673 96.2534 130.149 95.6734C129.626 95.0934 129.044 94.5714 128.462 93.9914C126.194 91.7874 123.809 89.7574 121.308 87.9014C118.807 85.9874 116.189 84.2474 113.572 82.5654C112.234 81.7534 110.896 80.9414 109.5 80.1294C108.162 79.3174 106.766 78.5634 105.37 77.8674C108.337 78.9114 111.245 80.2454 114.037 81.8114C116.829 83.3194 119.505 85.0594 122.064 86.9734C124.565 88.8874 127.008 91.0334 129.16 93.3534C131.371 95.6734 133.232 98.2834 134.744 101.067H134.686Z" fill="#363636"/>
<path d="M324.775 151.237C323.03 151.353 321.285 151.701 319.598 152.165C315.934 153.209 312.502 154.949 309.535 157.385C305.871 160.401 303.253 164.809 302.148 169.391C301.101 173.857 301.334 178.555 301.857 183.079C302.497 188.473 303.486 193.809 304.242 199.145C304.358 199.783 304.417 200.479 304.533 201.117C304.533 200.885 304.475 200.595 304.417 200.363C305.057 205.061 305.464 209.759 305.289 214.457C305.231 215.791 305.115 217.067 304.94 218.401C304.94 218.169 304.998 217.879 305.057 217.647C304.649 220.489 303.951 223.273 302.846 225.941C302.963 225.709 303.021 225.477 303.137 225.245C302.09 227.739 300.694 230.117 299.007 232.321C299.182 232.147 299.298 231.915 299.473 231.741C298.018 233.655 296.273 235.337 294.412 236.787C294.587 236.613 294.819 236.497 294.994 236.323C292.958 237.889 290.747 239.165 288.421 240.151C288.653 240.035 288.886 239.977 289.119 239.861C286.501 240.963 283.768 241.659 280.917 242.065C281.15 242.065 281.441 242.007 281.673 241.949C278.591 242.355 275.392 242.355 272.309 241.949C272.541 241.949 272.832 242.007 273.065 242.065C270.215 241.659 267.365 240.963 264.689 239.861C264.049 239.571 263.002 239.861 262.42 240.151C261.839 240.499 261.257 241.195 261.082 241.891C260.908 242.645 260.966 243.457 261.373 244.153C261.839 244.849 262.362 245.197 263.118 245.487C268.179 247.517 273.763 248.387 279.231 248.039C285.105 247.691 290.922 246.009 295.866 242.819C301.334 239.281 305.522 234.177 308.081 228.261C308.779 226.579 309.419 224.897 309.826 223.157C310.292 221.359 310.524 219.561 310.757 217.763C311.164 214.399 311.106 211.035 310.931 207.729C310.466 200.769 309.128 193.925 308.139 187.023C308.023 186.269 307.907 185.457 307.79 184.703C307.79 184.935 307.849 185.225 307.907 185.457C307.325 181.165 306.86 176.699 307.441 172.407C307.441 172.639 307.383 172.929 307.325 173.161C307.558 171.363 308.023 169.623 308.721 167.999C308.605 168.231 308.546 168.463 308.43 168.695C309.128 167.071 310.001 165.563 311.048 164.171C310.873 164.345 310.757 164.577 310.582 164.751C311.629 163.417 312.851 162.199 314.13 161.213C313.956 161.387 313.723 161.503 313.549 161.677C315.119 160.459 316.864 159.473 318.668 158.719C318.435 158.835 318.202 158.893 317.97 159.009C320.064 158.139 322.216 157.559 324.426 157.211C324.193 157.211 323.903 157.269 323.67 157.327C324.019 157.327 324.31 157.269 324.659 157.211C326.171 157.153 327.625 155.935 327.567 154.311C327.509 152.803 326.287 151.353 324.659 151.411L324.775 151.237Z" fill="#FBA621"/>
<path d="M267.655 238.643C267.83 240.209 267.83 241.775 267.713 243.283C267.539 245.255 267.132 247.227 266.492 249.083C263.293 258.247 254.684 265.323 243.865 266.483C229.149 268.107 216.003 258.305 214.491 244.501C212.978 230.755 223.623 218.285 238.281 216.661C252.939 215.037 266.143 224.839 267.655 238.643Z" fill="#FBA621"/>
<mask id="mask2_177_333" style="mask-type:luminance" maskUnits="userSpaceOnUse" x="214" y="216" width="54" height="51">
<path d="M267.655 238.643C269.167 252.389 258.523 264.859 243.865 266.483C229.149 268.107 216.003 258.305 214.491 244.501C212.978 230.755 223.623 218.285 238.281 216.661C252.939 215.037 266.143 224.839 267.655 238.643Z" fill="white"/>
</mask>
<g mask="url(#mask2_177_333)">
<path d="M231.359 217.589C231.534 217.705 231.708 217.821 231.883 217.937C232.115 218.053 232.29 218.227 232.522 218.343C232.639 218.459 232.755 218.517 232.871 218.633C232.93 218.633 232.988 218.749 233.104 218.807C232.93 218.691 233.162 218.807 233.22 218.923C234.907 220.257 236.478 221.823 237.874 223.505C239.968 225.999 241.887 228.899 243.458 231.915C245.61 236.091 247.239 240.557 248.344 245.081C249.856 251.171 250.612 257.493 250.787 263.757C250.787 264.627 250.787 265.555 250.787 266.425C250.787 267.179 251.95 267.179 251.95 266.425C251.95 259.813 251.31 253.201 249.856 246.705C248.809 241.891 247.239 237.135 245.086 232.669C243.516 229.421 241.596 226.289 239.328 223.505C237.874 221.649 236.245 219.967 234.442 218.459C233.686 217.821 232.871 217.125 231.941 216.661C231.301 216.313 230.719 217.299 231.359 217.647V217.589Z" fill="#404040"/>
<path d="M239.154 215.153C239.91 215.849 240.608 216.603 241.306 217.357C243.109 219.329 244.796 221.359 246.308 223.505C248.518 226.579 250.496 229.827 252.125 233.191C254.044 237.135 255.615 241.311 256.545 245.661C257.651 250.533 257.941 255.521 257.476 260.451C257.418 261.089 257.36 261.727 257.243 262.365C257.243 262.655 257.302 263.003 257.651 263.061C257.941 263.119 258.349 262.945 258.349 262.655C259.047 257.551 258.93 252.331 258 247.285C257.185 242.761 255.731 238.353 253.812 234.177C252.183 230.581 250.205 227.217 247.995 223.969C246.366 221.591 244.563 219.271 242.585 217.125C241.713 216.197 240.899 215.211 239.91 214.341C239.386 213.819 238.514 214.631 239.095 215.153H239.154Z" fill="#404040"/>
<path d="M248.227 215.791C248.867 216.429 249.449 217.067 250.031 217.705C251.543 219.445 252.939 221.127 254.219 223.041C256.08 225.651 257.709 228.435 259.105 231.335C260.675 234.699 261.955 238.179 262.711 241.775C263.525 245.777 263.758 249.895 263.234 253.955C263.176 254.477 263.06 254.999 263.002 255.521C263.002 255.811 263.06 256.159 263.409 256.217C263.7 256.275 264.049 256.101 264.107 255.811C264.863 251.635 264.863 247.343 264.107 243.109C263.467 239.281 262.304 235.627 260.733 232.089C259.395 229.073 257.767 226.115 255.905 223.389C254.509 221.301 252.997 219.329 251.31 217.415C250.612 216.603 249.856 215.733 249.042 214.979C248.518 214.457 247.704 215.269 248.227 215.791Z" fill="#404040"/>
<path d="M247.006 238.063C246.133 238.121 245.261 238.237 244.388 238.353C242.294 238.643 240.259 239.049 238.223 239.571C235.489 240.267 232.755 241.195 230.138 242.297C227.287 243.573 224.554 245.081 222.111 247.053C219.609 249.025 217.457 251.519 216.003 254.361C215.829 254.709 215.654 255.115 215.48 255.463C215.363 255.753 215.421 256.101 215.712 256.275C215.945 256.391 216.352 256.333 216.527 256.043C217.806 253.143 219.726 250.649 222.111 248.619C224.379 246.589 227.055 245.023 229.847 243.747C232.406 242.587 235.082 241.659 237.757 240.905C239.851 240.325 242.004 239.861 244.156 239.571C244.33 239.571 244.563 239.513 244.737 239.455C244.854 239.455 244.912 239.455 245.028 239.455C245.028 239.455 245.086 239.455 245.145 239.455C245.435 239.455 245.726 239.397 246.017 239.339C246.308 239.339 246.657 239.281 246.948 239.223C247.704 239.223 247.704 238.005 246.948 238.063H247.006Z" fill="#404040"/>
<path d="M247.239 239.513C246.541 239.745 245.901 240.035 245.261 240.383C243.691 241.137 242.178 241.949 240.782 242.935C238.805 244.269 236.943 245.777 235.256 247.517C233.337 249.547 231.708 251.809 230.545 254.303C229.149 257.203 228.393 260.393 228.218 263.583C228.218 264.047 228.218 264.453 228.218 264.917C228.218 265.671 229.382 265.671 229.382 264.917C229.382 261.785 229.963 258.595 231.185 255.695C232.232 253.201 233.744 250.939 235.547 248.909C237.118 247.169 238.921 245.603 240.84 244.269C242.295 243.225 243.865 242.355 245.436 241.543C245.726 241.427 246.017 241.253 246.308 241.137C246.424 241.137 246.541 241.021 246.657 240.963C246.657 240.963 246.773 240.963 246.832 240.905C246.832 240.905 246.832 240.905 246.89 240.905C246.773 240.963 246.948 240.905 246.89 240.905C247.122 240.789 247.355 240.731 247.588 240.615C248.286 240.383 247.995 239.223 247.297 239.513H247.239Z" fill="#404040"/>
<path d="M247.878 242.877C246.773 244.385 245.843 246.067 244.97 247.749C243.109 251.519 241.655 255.521 241.131 259.697C240.782 262.481 240.782 265.265 241.247 267.991C241.247 268.281 241.655 268.455 241.945 268.397C242.294 268.281 242.411 267.991 242.353 267.701C241.538 263.119 242.178 258.421 243.632 254.071C244.679 250.939 246.075 247.865 247.82 245.081C248.169 244.559 248.518 243.979 248.867 243.515C249.042 243.283 248.867 242.877 248.635 242.703C248.344 242.529 248.053 242.703 247.82 242.935L247.878 242.877Z" fill="#404040"/>
<path d="M243.225 230.581C241.538 232.321 240.2 234.467 239.386 236.671C238.979 237.715 238.688 238.817 238.572 239.919C238.572 240.209 238.863 240.499 239.153 240.499C239.444 240.499 239.677 240.209 239.735 239.919C240.026 237.715 240.957 235.685 242.178 233.829C242.76 232.959 243.341 232.147 244.098 231.335C244.621 230.813 243.807 230.001 243.283 230.523L243.225 230.581Z" fill="#404040"/>
<path d="M239.619 224.433C238.339 225.071 237.176 226.057 236.129 226.985C233.628 229.305 231.766 232.205 230.603 235.395C229.73 237.831 229.323 240.441 229.265 243.051C229.265 243.805 230.428 243.805 230.428 243.051C230.487 238.933 231.592 234.931 233.86 231.451C234.675 230.233 235.605 229.131 236.652 228.087C237.059 227.681 237.525 227.275 237.99 226.927C238.106 226.869 238.165 226.753 238.281 226.695C238.339 226.695 238.281 226.695 238.339 226.695C238.339 226.695 238.455 226.637 238.514 226.579C238.688 226.463 238.863 226.347 239.037 226.231C239.444 225.941 239.793 225.709 240.259 225.477C240.898 225.129 240.317 224.143 239.677 224.491L239.619 224.433Z" fill="#404040"/>
<path d="M235.896 220.257C235.256 220.547 234.675 220.953 234.093 221.301C232.581 222.287 231.185 223.331 229.847 224.549C228.044 226.173 226.415 227.971 225.019 229.943C223.39 232.263 222.111 234.815 221.296 237.483C220.366 240.615 220.133 243.921 220.54 247.169C220.54 247.633 220.656 248.097 220.715 248.561C220.715 248.851 221.122 249.025 221.413 248.967C221.762 248.851 221.878 248.561 221.82 248.271C221.296 245.081 221.354 241.833 222.169 238.701C222.809 236.033 223.972 233.539 225.484 231.219C226.822 229.247 228.393 227.449 230.138 225.825C231.534 224.549 232.755 223.563 234.326 222.577C235.024 222.113 235.722 221.707 236.42 221.301C237.059 220.953 236.478 219.967 235.838 220.315L235.896 220.257Z" fill="#404040"/>
</g>
<path d="M267.655 238.643C268.062 240.383 268.12 242.181 267.946 243.979C267.713 245.777 267.306 247.517 266.492 249.083C266.841 247.343 267.19 245.661 267.364 243.921C267.597 242.181 267.597 240.441 267.655 238.643Z" fill="#404040"/>
<path d="M109.731 127.267C110.739 127.267 111.619 127.411 112.371 127.699C113.123 127.987 113.859 128.427 114.579 129.019L112.971 130.891C111.995 130.107 110.971 129.715 109.899 129.715C108.667 129.715 107.675 130.211 106.923 131.203C106.187 132.195 105.819 133.755 105.819 135.883C105.819 137.963 106.187 139.507 106.923 140.515C107.659 141.523 108.651 142.027 109.899 142.027C110.555 142.027 111.139 141.915 111.651 141.691C112.163 141.451 112.707 141.115 113.283 140.683L114.771 142.555C114.211 143.131 113.499 143.611 112.635 143.995C111.787 144.379 110.835 144.571 109.779 144.571C108.339 144.571 107.067 144.235 105.963 143.563C104.859 142.891 104.003 141.907 103.395 140.611C102.787 139.299 102.483 137.723 102.483 135.883C102.483 134.075 102.795 132.523 103.419 131.227C104.059 129.931 104.923 128.947 106.011 128.275C107.115 127.603 108.355 127.267 109.731 127.267ZM129.204 127.627L124.86 135.259L129.636 144.211H126.084L122.196 136.747H120.204V144.211H117.036V127.627H120.204V134.323H122.244L125.988 127.627H129.204ZM137.622 127.267C139.11 127.267 140.398 127.603 141.486 128.275C142.574 128.947 143.406 129.931 143.982 131.227C144.574 132.523 144.87 134.083 144.87 135.907C144.87 137.715 144.574 139.267 143.982 140.563C143.39 141.859 142.55 142.851 141.462 143.539C140.374 144.227 139.094 144.571 137.622 144.571C136.134 144.571 134.846 144.235 133.758 143.563C132.67 142.891 131.83 141.907 131.238 140.611C130.646 139.315 130.35 137.755 130.35 135.931C130.35 134.139 130.646 132.595 131.238 131.299C131.83 129.987 132.67 128.987 133.758 128.299C134.862 127.611 136.15 127.267 137.622 127.267ZM137.622 129.691C136.342 129.691 135.366 130.195 134.694 131.203C134.022 132.195 133.686 133.771 133.686 135.931C133.686 140.075 134.998 142.147 137.622 142.147C138.902 142.147 139.87 141.651 140.526 140.659C141.198 139.667 141.534 138.083 141.534 135.907C141.534 133.747 141.198 132.171 140.526 131.179C139.87 130.187 138.902 129.691 137.622 129.691ZM152.752 127.627C154.88 127.627 156.528 128.067 157.696 128.947C158.88 129.827 159.472 131.147 159.472 132.907C159.472 134.747 158.88 136.131 157.696 137.059C156.512 137.971 154.936 138.427 152.968 138.427H151.024V144.211H147.856V127.627H152.752ZM152.728 136.051C153.864 136.051 154.72 135.819 155.296 135.355C155.872 134.875 156.16 134.059 156.16 132.907C156.16 130.939 155.016 129.955 152.728 129.955H151.024V136.051H152.728ZM168.396 127.267C169.884 127.267 171.172 127.603 172.26 128.275C173.348 128.947 174.18 129.931 174.756 131.227C175.348 132.523 175.644 134.083 175.644 135.907C175.644 137.715 175.348 139.267 174.756 140.563C174.164 141.859 173.324 142.851 172.236 143.539C171.148 144.227 169.868 144.571 168.396 144.571C166.908 144.571 165.62 144.235 164.532 143.563C163.444 142.891 162.604 141.907 162.012 140.611C161.42 139.315 161.124 137.755 161.124 135.931C161.124 134.139 161.42 132.595 162.012 131.299C162.604 129.987 163.444 128.987 164.532 128.299C165.636 127.611 166.924 127.267 168.396 127.267ZM168.396 129.691C167.116 129.691 166.14 130.195 165.468 131.203C164.796 132.195 164.46 133.771 164.46 135.931C164.46 140.075 165.772 142.147 168.396 142.147C169.676 142.147 170.644 141.651 171.3 140.659C171.972 139.667 172.308 138.083 172.308 135.907C172.308 133.747 171.972 132.171 171.3 131.179C170.644 130.187 169.676 129.691 168.396 129.691ZM190.965 127.267C191.973 127.267 192.853 127.411 193.605 127.699C194.357 127.987 195.093 128.427 195.813 129.019L194.205 130.891C193.229 130.107 192.205 129.715 191.133 129.715C189.901 129.715 188.909 130.211 188.157 131.203C187.421 132.195 187.053 133.755 187.053 135.883C187.053 137.963 187.421 139.507 188.157 140.515C188.893 141.523 189.885 142.027 191.133 142.027C191.789 142.027 192.373 141.915 192.885 141.691C193.397 141.451 193.941 141.115 194.517 140.683L196.005 142.555C195.445 143.131 194.733 143.611 193.869 143.995C193.021 144.379 192.069 144.571 191.013 144.571C189.573 144.571 188.301 144.235 187.197 143.563C186.093 142.891 185.237 141.907 184.629 140.611C184.021 139.299 183.717 137.723 183.717 135.883C183.717 134.075 184.029 132.523 184.653 131.227C185.293 129.931 186.157 128.947 187.245 128.275C188.349 127.603 189.589 127.267 190.965 127.267ZM208.692 127.627L208.356 130.147H204.036V144.211H200.844V130.147H196.38V127.627H208.692ZM218.351 144.211L217.319 140.371H211.823L210.791 144.211H207.503L212.663 127.627H216.575L221.711 144.211H218.351ZM212.447 137.971H216.671L214.559 130.051L212.447 137.971ZM232.631 144.211V136.795H226.727V144.211H223.559V127.627H226.727V134.275H232.631V127.627H235.823V144.211H232.631ZM246.86 139.483C246.396 140.683 245.884 141.627 245.324 142.315C244.78 142.987 244.124 143.499 243.356 143.851C242.588 144.187 241.612 144.427 240.428 144.571L239.996 142.363C241.084 142.187 241.9 141.915 242.444 141.547C243.004 141.179 243.468 140.579 243.836 139.747H242.78L237.572 127.627H240.86L244.772 137.899L248.228 127.627H251.468L246.86 139.483ZM263.77 127.627L263.434 130.147H259.114V144.211H255.922V130.147H251.458V127.627H263.77ZM135.266 170.715V177.003H132.962L132.554 173.211H123.434L123.026 177.003H120.722V170.715H121.898C122.282 170.315 122.586 169.811 122.81 169.203C123.034 168.579 123.234 167.723 123.41 166.635C123.602 165.547 123.842 163.883 124.13 161.643L124.754 156.627H133.85V170.715H135.266ZM130.73 159.051H127.466L127.202 161.523C126.978 163.603 126.754 165.219 126.53 166.371C126.322 167.507 126.058 168.411 125.738 169.083C125.434 169.739 125.018 170.283 124.49 170.715H130.73V159.051ZM144.243 156.267C145.731 156.267 147.019 156.603 148.107 157.275C149.195 157.947 150.027 158.931 150.603 160.227C151.195 161.523 151.491 163.083 151.491 164.907C151.491 166.715 151.195 168.267 150.603 169.563C150.011 170.859 149.171 171.851 148.083 172.539C146.995 173.227 145.715 173.571 144.243 173.571C142.755 173.571 141.467 173.235 140.379 172.563C139.291 171.891 138.451 170.907 137.859 169.611C137.267 168.315 136.971 166.755 136.971 164.931C136.971 163.139 137.267 161.595 137.859 160.299C138.451 158.987 139.291 157.987 140.379 157.299C141.483 156.611 142.771 156.267 144.243 156.267ZM144.243 158.691C142.963 158.691 141.987 159.195 141.315 160.203C140.643 161.195 140.307 162.771 140.307 164.931C140.307 169.075 141.619 171.147 144.243 171.147C145.523 171.147 146.491 170.651 147.147 169.659C147.819 168.667 148.155 167.083 148.155 164.907C148.155 162.747 147.819 161.171 147.147 160.179C146.491 159.187 145.523 158.691 144.243 158.691ZM160.813 156.267C161.821 156.267 162.701 156.411 163.453 156.699C164.205 156.987 164.941 157.427 165.661 158.019L164.053 159.891C163.077 159.107 162.053 158.715 160.981 158.715C159.749 158.715 158.757 159.211 158.005 160.203C157.269 161.195 156.901 162.755 156.901 164.883C156.901 166.963 157.269 168.507 158.005 169.515C158.741 170.523 159.733 171.027 160.981 171.027C161.637 171.027 162.221 170.915 162.733 170.691C163.245 170.451 163.789 170.115 164.365 169.683L165.853 171.555C165.293 172.131 164.581 172.611 163.717 172.995C162.869 173.379 161.917 173.571 160.861 173.571C159.421 173.571 158.149 173.235 157.045 172.563C155.941 171.891 155.085 170.907 154.477 169.611C153.869 168.299 153.565 166.723 153.565 164.883C153.565 163.075 153.877 161.523 154.501 160.227C155.141 158.931 156.005 157.947 157.093 157.275C158.197 156.603 159.437 156.267 160.813 156.267ZM178.539 156.627L178.203 159.147H173.883V173.211H170.691V159.147H166.227V156.627H178.539ZM187.786 168.483C187.322 169.683 186.81 170.627 186.25 171.315C185.706 171.987 185.05 172.499 184.282 172.851C183.514 173.187 182.538 173.427 181.354 173.571L180.922 171.363C182.01 171.187 182.826 170.915 183.37 170.547C183.93 170.179 184.394 169.579 184.762 168.747H183.706L178.498 156.627H181.786L185.698 166.899L189.154 156.627H192.394L187.786 168.483ZM206.207 156.627V173.211H203.039V159.147H197.207V173.211H194.039V156.627H206.207ZM219.166 173.211V165.795H213.262V173.211H210.094V156.627H213.262V163.275H219.166V156.627H222.358V173.211H219.166ZM231.067 162.483C233.147 162.483 234.755 162.923 235.891 163.803C237.027 164.667 237.595 165.971 237.595 167.715C237.595 169.571 237.011 170.955 235.843 171.867C234.675 172.763 233.099 173.211 231.115 173.211H226.219V156.627H229.387V162.483H231.067ZM239.227 156.627H242.395V173.211H239.227V156.627ZM231.019 170.835C232.059 170.835 232.859 170.603 233.419 170.139C233.979 169.675 234.259 168.883 234.259 167.763C234.259 166.723 233.979 165.971 233.419 165.507C232.859 165.027 232.019 164.787 230.899 164.787H229.387V170.835H231.019ZM91.4201 202.211V194.795H85.5161V202.211H82.3481V185.627H85.5161V192.275H91.4201V185.627H94.6121V202.211H91.4201ZM104.833 185.267C106.321 185.267 107.609 185.603 108.697 186.275C109.785 186.947 110.617 187.931 111.193 189.227C111.785 190.523 112.081 192.083 112.081 193.907C112.081 195.715 111.785 197.267 111.193 198.563C110.601 199.859 109.761 200.851 108.673 201.539C107.585 202.227 106.305 202.571 104.833 202.571C103.345 202.571 102.057 202.235 100.969 201.563C99.8811 200.891 99.0411 199.907 98.4491 198.611C97.8571 197.315 97.5611 195.755 97.5611 193.931C97.5611 192.139 97.8571 190.595 98.4491 189.299C99.0411 187.987 99.8811 186.987 100.969 186.299C102.073 185.611 103.361 185.267 104.833 185.267ZM104.833 187.691C103.553 187.691 102.577 188.195 101.905 189.203C101.233 190.195 100.897 191.771 100.897 193.931C100.897 198.075 102.209 200.147 104.833 200.147C106.113 200.147 107.081 199.651 107.737 198.659C108.409 197.667 108.745 196.083 108.745 193.907C108.745 191.747 108.409 190.171 107.737 189.179C107.081 188.187 106.113 187.691 104.833 187.691ZM123.203 193.427C124.339 193.635 125.251 194.043 125.939 194.651C126.643 195.259 126.995 196.187 126.995 197.435C126.995 199.163 126.387 200.395 125.171 201.131C123.955 201.851 122.251 202.211 120.059 202.211H115.067V185.627H119.411C123.987 185.627 126.275 187.035 126.275 189.851C126.275 190.827 125.979 191.627 125.387 192.251C124.795 192.859 124.067 193.251 123.203 193.427ZM118.235 187.955V192.443H120.179C121.059 192.443 121.755 192.251 122.267 191.867C122.779 191.467 123.035 190.883 123.035 190.115C123.035 189.315 122.763 188.755 122.219 188.435C121.691 188.115 120.859 187.955 119.723 187.955H118.235ZM120.083 199.835C121.251 199.835 122.139 199.659 122.747 199.307C123.371 198.955 123.683 198.291 123.683 197.315C123.683 196.371 123.387 195.691 122.795 195.275C122.219 194.859 121.427 194.651 120.419 194.651H118.235V199.835H120.083ZM134.634 191.483C136.714 191.483 138.322 191.923 139.458 192.803C140.594 193.667 141.162 194.971 141.162 196.715C141.162 198.571 140.578 199.955 139.41 200.867C138.242 201.763 136.666 202.211 134.682 202.211H129.786V185.627H132.954V191.483H134.634ZM142.794 185.627H145.962V202.211H142.794V185.627ZM134.586 199.835C135.626 199.835 136.426 199.603 136.986 199.139C137.546 198.675 137.826 197.883 137.826 196.763C137.826 195.723 137.546 194.971 136.986 194.507C136.426 194.027 135.586 193.787 134.466 193.787H132.954V199.835H134.586ZM159.472 185.627L159.136 187.979H153.016V192.611H158.344V194.963H153.016V199.835H159.568V202.211H149.848V185.627H159.472ZM186.023 193.811C186.023 196.179 185.327 197.979 183.935 199.211C182.559 200.443 180.655 201.099 178.223 201.179V203.099H175.127V201.155C172.631 201.027 170.711 200.355 169.367 199.139C168.023 197.923 167.351 196.171 167.351 193.883C167.351 191.499 168.039 189.699 169.415 188.483C170.791 187.251 172.695 186.595 175.127 186.515V184.763H178.223V186.539C180.719 186.651 182.639 187.315 183.983 188.531C185.343 189.747 186.023 191.507 186.023 193.811ZM170.591 193.883C170.591 195.579 170.967 196.851 171.719 197.699C172.487 198.531 173.663 198.987 175.247 199.067V188.603C173.647 188.715 172.471 189.195 171.719 190.043C170.967 190.875 170.591 192.155 170.591 193.883ZM178.103 199.067C179.719 198.955 180.903 198.491 181.655 197.675C182.407 196.843 182.783 195.555 182.783 193.811C182.783 192.099 182.399 190.827 181.631 189.995C180.879 189.163 179.703 188.707 178.103 188.627V199.067ZM195.626 197.483C195.162 198.683 194.65 199.627 194.09 200.315C193.546 200.987 192.89 201.499 192.122 201.851C191.354 202.187 190.378 202.427 189.194 202.571L188.762 200.363C189.85 200.187 190.666 199.915 191.21 199.547C191.77 199.179 192.234 198.579 192.602 197.747H191.546L186.338 185.627H189.626L193.538 195.899L196.994 185.627H200.234L195.626 197.483ZM210.951 202.211V194.795H205.047V202.211H201.879V185.627H205.047V192.275H210.951V185.627H214.143V202.211H210.951ZM230.172 185.627L225.828 193.259L230.604 202.211H227.052L223.164 194.747H221.172V202.211H218.004V185.627H221.172V192.323H223.212L226.956 185.627H230.172ZM244.582 199.715H246.502V206.003H244.198L243.79 202.211H232.606V185.627H235.774V199.691H241.39V185.627H244.582V199.715ZM261.088 202.211H257.944V195.155C257.944 193.107 258.096 191.019 258.4 188.891L252.76 202.211H248.848V185.627H251.992V192.755C251.992 194.083 251.952 195.187 251.872 196.067C251.792 196.947 251.68 197.907 251.536 198.947L257.272 185.627H261.088V202.211ZM277.213 202.211H274.069V195.155C274.069 193.107 274.221 191.019 274.525 188.891L268.885 202.211H264.973V185.627H268.117V192.755C268.117 194.083 268.077 195.187 267.997 196.067C267.917 196.947 267.805 197.907 267.661 198.947L273.397 185.627H277.213V202.211ZM283.666 185.627L283.306 196.355H280.738L280.354 185.627H283.666ZM282.034 198.683C282.578 198.683 283.034 198.875 283.402 199.259C283.786 199.627 283.978 200.083 283.978 200.627C283.978 201.155 283.786 201.611 283.402 201.995C283.034 202.379 282.578 202.571 282.034 202.571C281.49 202.571 281.026 202.379 280.642 201.995C280.274 201.611 280.09 201.155 280.09 200.627C280.09 200.083 280.274 199.627 280.642 199.259C281.026 198.875 281.49 198.683 282.034 198.683Z" fill="#EDEDED"/>
</svg>
