<svg width="110" height="108" viewBox="0 0 110 108" fill="none" xmlns="http://www.w3.org/2000/svg">
<g clip-path="url(#clip0_23_50)">
<path fill-rule="evenodd" clip-rule="evenodd" d="M13.4179 0.617188H96.5821C100.274 0.617188 103.629 2.08491 106.06 4.44946C108.491 6.81402 110 10.0775 110 13.6691V94.5653C110 98.1569 108.491 101.42 106.06 103.785C103.629 106.15 100.274 107.617 96.5821 107.617H13.4179C9.72561 107.617 6.37063 106.15 3.93978 103.785C1.50893 101.42 0 98.1569 0 94.5653V13.6691C0 10.0775 1.50893 6.81402 3.93978 4.44946C6.37063 2.08491 9.72561 0.617188 13.4179 0.617188Z" fill="#DA3937"/>
<path fill-rule="evenodd" clip-rule="evenodd" d="M13.4178 2.7793H96.5822C102.74 2.7793 107.777 7.67972 107.777 13.6692V94.5654C107.777 100.555 102.74 105.455 96.5822 105.455H13.4178C7.2604 105.455 2.22266 100.555 2.22266 94.5654V13.6692C2.22266 7.67972 7.2604 2.7793 13.4178 2.7793Z" fill="#FEFEFE"/>
<path fill-rule="evenodd" clip-rule="evenodd" d="M26.7074 77.2329H38.8067C38.9334 77.2329 39.0423 77.1845 39.1255 77.0915C42.981 72.7739 48.6666 70.0437 55.0079 70.0437C61.3492 70.0437 67.0349 72.7738 70.8904 77.0915C70.9735 77.1845 71.0825 77.2329 71.2091 77.2329H83.2933C83.3679 77.2329 83.4319 77.1986 83.4717 77.1374C83.5117 77.0761 83.5159 77.005 83.4839 76.9395L55.191 19.0069C55.1552 18.9336 55.0838 18.8896 55.0003 18.8896C54.9168 18.8896 54.8453 18.9336 54.8095 19.0069L26.5167 76.9395C26.4847 77.005 26.489 77.0761 26.5289 77.1374C26.5687 77.1986 26.6328 77.2329 26.7074 77.2329ZM45.1447 62.9832L55.0003 42.8028L64.8521 62.9755C61.8211 61.7485 58.4958 61.0712 55.0079 61.0712C51.5127 61.0712 48.1809 61.7514 45.1447 62.9832Z" fill="#DA3937"/>
<path d="M74.9547 80.9576H77.1336C77.1648 80.9576 77.1903 80.9823 77.1903 81.0126V82.7074C77.1903 82.7376 77.2157 82.7625 77.2467 82.7625H79.8876C80.9478 82.7625 81.8157 83.0531 82.4913 83.6345C83.167 84.2159 83.5048 84.9969 83.5048 85.9777C83.5048 86.9687 83.1644 87.7775 82.4836 88.4044C81.8027 89.0312 80.9374 89.3447 79.8876 89.3447H74.9547C74.9237 89.3447 74.8982 89.3199 74.8982 89.2897V81.0126C74.8982 80.9823 74.9237 80.9576 74.9547 80.9576ZM46.1141 80.9576H55.0129C55.0441 80.9576 55.0695 80.9823 55.0695 81.0126V82.9045C55.0695 82.9349 55.0441 82.9596 55.0129 82.9596H51.7738C51.7427 82.9596 51.7173 82.9843 51.7173 83.0147V89.2897C51.7173 89.3199 51.6919 89.3447 51.6607 89.3447H49.4663C49.435 89.3447 49.4097 89.3199 49.4097 89.2897V83.0147C49.4097 82.9843 49.3843 82.9596 49.353 82.9596H46.1141C46.0829 82.9596 46.0575 82.9349 46.0575 82.9045V81.0126C46.0575 80.9823 46.0829 80.9576 46.1141 80.9576ZM30.8921 84.5524L30.1721 86.1657C30.1672 86.1769 30.1682 86.1888 30.1752 86.1991C30.1821 86.2094 30.1929 86.215 30.2054 86.215H31.5869C31.5995 86.215 31.6104 86.2092 31.6173 86.199C31.6242 86.1886 31.6251 86.1767 31.62 86.1654L30.8921 84.5524ZM29.2678 88.1918L28.7691 89.3093C28.7593 89.3313 28.7383 89.3447 28.7136 89.3447H26.5558C26.5344 89.3447 26.5162 89.3349 26.5047 89.3175C26.4934 89.3001 26.492 89.2798 26.501 89.261L30.4659 80.9915C30.4761 80.9702 30.4968 80.9575 30.5209 80.9575H31.2784C31.3025 80.9575 31.3231 80.9702 31.3332 80.9914L35.307 89.2608C35.3161 89.2797 35.3147 89.3 35.3032 89.3175C35.2918 89.3349 35.2734 89.3447 35.2522 89.3447H33.0944C33.0699 89.3447 33.0489 89.3314 33.039 89.3095L32.5345 88.1915C32.5246 88.1697 32.5036 88.1564 32.4791 88.1564H29.3233C29.2987 88.1564 29.2776 88.1698 29.2678 88.1918ZM69.5344 84.5524L67.4114 89.3093C67.4016 89.3313 67.3805 89.3447 67.3558 89.3447H65.1981C65.1767 89.3447 65.1585 89.3349 65.147 89.3175C65.1356 89.3001 65.1343 89.2798 65.1433 89.261L69.1082 80.9915C69.1184 80.9702 69.1391 80.9575 69.1631 80.9575H69.9207C69.9448 80.9575 69.9654 80.9702 69.9755 80.9914L73.9492 89.2608C73.9583 89.2797 73.957 89.3 73.9455 89.3175C73.9341 89.3349 73.9157 89.3447 73.8944 89.3447H71.7367C71.7122 89.3447 71.6912 89.3314 71.6813 89.3095L69.5344 84.5524ZM77.1903 84.8043V87.2573C77.1903 87.2876 77.2157 87.3124 77.2467 87.3124H79.7316C80.7191 87.3124 81.2129 86.8675 81.2129 85.9777C81.2129 85.5429 81.0959 85.2295 80.8621 85.0374C80.6281 84.8453 80.2513 84.7492 79.7316 84.7492H77.2467C77.2157 84.7492 77.1903 84.774 77.1903 84.8043ZM36.5563 80.9576H41.5982C42.6481 80.9576 43.5108 81.2684 44.1864 81.8903C44.8621 82.5122 45.1999 83.3134 45.1999 84.2942C45.1999 85.275 44.8621 86.0636 44.1864 86.6601C43.5108 87.2567 42.6481 87.555 41.5982 87.555H38.8483C38.8171 87.555 38.7917 87.5798 38.7917 87.6101V89.2897C38.7917 89.3199 38.7662 89.3447 38.7352 89.3447H36.5563C36.5251 89.3447 36.4997 89.3199 36.4997 89.2897V81.0126C36.4997 80.9823 36.5251 80.9576 36.5563 80.9576ZM38.7917 83.0449V85.4677C38.7917 85.4979 38.8171 85.5228 38.8483 85.5228H41.5046C41.9204 85.5228 42.2557 85.4165 42.5104 85.2043C42.765 84.9918 42.8923 84.6885 42.8923 84.2942C42.8923 83.8999 42.765 83.5839 42.5104 83.3464C42.2557 83.1087 41.9204 82.9899 41.5046 82.9899H38.8483C38.8171 82.9899 38.7917 83.0147 38.7917 83.0449ZM56.3266 80.9576H64.1495C64.1808 80.9576 64.2062 80.9823 64.2062 81.0126V82.9197C64.2062 82.95 64.1808 82.9746 64.1495 82.9746H58.6186C58.5875 82.9746 58.5621 82.9994 58.5621 83.0298V84.0268C58.5621 84.0572 58.5875 84.0819 58.6186 84.0819H63.5728C63.6039 84.0819 63.6294 84.1066 63.6294 84.137V86.044C63.6294 86.0744 63.6039 86.099 63.5728 86.099H58.6186C58.5875 86.099 58.5621 86.1238 58.5621 86.1542V87.227C58.5621 87.2573 58.5875 87.2821 58.6186 87.2821H64.3524C64.3836 87.2821 64.4089 87.3068 64.4089 87.3371V89.2897C64.4089 89.3199 64.3836 89.3447 64.3524 89.3447H56.3266C56.2955 89.3447 56.27 89.3199 56.27 89.2897V81.0126C56.27 80.9823 56.2955 80.9576 56.3266 80.9576Z" fill="#253463"/>
</g>
<defs>
<clipPath id="clip0_23_50">
<rect width="110" height="107" fill="white" transform="translate(0 0.617188)"/>
</clipPath>
</defs>
</svg>
