<svg width="38" height="37" viewBox="0 0 38 37" fill="none" xmlns="http://www.w3.org/2000/svg">
<path fill-rule="evenodd" clip-rule="evenodd" d="M8.08493 29.8121H12.9356C12.9864 29.8121 13.0301 29.7924 13.0634 29.7544C14.6091 27.9922 16.8884 26.8779 19.4307 26.8779C21.9729 26.8779 24.2523 27.9922 25.798 29.7544C25.8313 29.7924 25.875 29.8121 25.9258 29.8121H30.7703C30.8002 29.8121 30.8259 29.7981 30.8419 29.7731C30.8579 29.7481 30.8596 29.7191 30.8468 29.6924L19.5041 6.04787C19.4897 6.01795 19.4611 6 19.4276 6C19.3941 6 19.3655 6.01795 19.3511 6.04787L8.00849 29.6924C7.99568 29.7191 7.99741 29.7481 8.0134 29.7731C8.02936 29.7981 8.05504 29.8121 8.08493 29.8121ZM15.4765 23.9963L19.4276 15.7599L23.3772 23.9931C22.1621 23.4924 20.829 23.2159 19.4307 23.2159C18.0294 23.2159 16.6937 23.4935 15.4765 23.9963Z" fill="#DA3937"/>
<rect x="0.65" y="0.65" width="36.7" height="35.7" rx="7.35" stroke="#DA3937" stroke-width="1.3"/>
</svg>
