<svg width="110" height="107" viewBox="0 0 110 107" fill="none" xmlns="http://www.w3.org/2000/svg">
<g clip-path="url(#clip0_390_1131)">
<path fill-rule="evenodd" clip-rule="evenodd" d="M13.4179 0H96.5821C100.274 0 103.629 1.46772 106.06 3.83227C108.491 6.19683 110 9.46031 110 13.0519V93.9481C110 97.5397 108.491 100.803 106.06 103.168C103.629 105.532 100.274 107 96.5821 107H13.4179C9.72561 107 6.37063 105.532 3.93978 103.168C1.50893 100.803 0 97.5397 0 93.9481V13.0519C0 9.46031 1.50893 6.19683 3.93978 3.83227C6.37063 1.46772 9.72561 0 13.4179 0Z" fill="#DA3937"/>
<path fill-rule="evenodd" clip-rule="evenodd" d="M13.4178 2.16211H96.5822C102.74 2.16211 107.777 7.06253 107.777 13.052V93.9482C107.777 99.9377 102.74 104.838 96.5822 104.838H13.4178C7.2604 104.838 2.22266 99.9377 2.22266 93.9482V13.052C2.22266 7.06253 7.2604 2.16211 13.4178 2.16211Z" fill="#FEFEFE"/>
<path fill-rule="evenodd" clip-rule="evenodd" d="M39.1226 67H46.1264C46.1997 67 46.2627 66.9718 46.3108 66.9176C48.5426 64.4015 51.8338 62.8104 55.5044 62.8104C59.175 62.8104 62.4662 64.4014 64.698 66.9176C64.7461 66.9718 64.8091 67 64.8825 67H71.8774C71.9205 67 71.9576 66.98 71.9806 66.9443C72.0038 66.9086 72.0062 66.8672 71.9877 66.829L55.6104 33.0683C55.5897 33.0256 55.5483 33 55.5 33C55.4516 33 55.4103 33.0256 55.3895 33.0683L39.0123 66.829C38.9937 66.8672 38.9963 66.9086 39.0194 66.9443C39.0424 66.98 39.0795 67 39.1226 67ZM49.7951 58.6958L55.5 46.9356L61.2027 58.6914C59.4482 57.9763 57.5233 57.5816 55.5044 57.5816C53.4812 57.5816 51.5526 57.978 49.7951 58.6958Z" fill="#DA3937"/>
<path d="M67.0508 69H68.3121C68.3301 69 68.3448 69.0148 68.3448 69.0328V70.0432C68.3448 70.0612 68.3595 70.076 68.3775 70.076H69.9062C70.5199 70.076 71.0223 70.2493 71.4133 70.5959C71.8044 70.9425 72 71.4081 72 71.9928C72 72.5835 71.803 73.0657 71.4089 73.4394C71.0147 73.8131 70.5139 74 69.9062 74H67.0508C67.0328 74 67.0181 73.9853 67.0181 73.9672V69.0328C67.0181 69.0148 67.0328 69 67.0508 69ZM50.3564 69H55.5075C55.5255 69 55.5403 69.0148 55.5403 69.0328V70.1607C55.5403 70.1788 55.5255 70.1935 55.5075 70.1935H53.6325C53.6145 70.1935 53.5998 70.2083 53.5998 70.2264V73.9672C53.5998 73.9853 53.5851 74 53.5671 74H52.2968C52.2788 74 52.2641 73.9853 52.2641 73.9672V70.2264C52.2641 70.2083 52.2494 70.1935 52.2313 70.1935H50.3564C50.3384 70.1935 50.3236 70.1788 50.3236 70.1607V69.0328C50.3236 69.0148 50.3384 69 50.3564 69ZM41.5452 71.1431L41.1284 72.1048C41.1256 72.1115 41.1261 72.1187 41.1302 72.1247C41.1342 72.1309 41.1404 72.1343 41.1477 72.1343H41.9474C41.9547 72.1343 41.961 72.1308 41.965 72.1247C41.969 72.1185 41.9695 72.1114 41.9666 72.1047L41.5452 71.1431ZM40.605 73.3127L40.3163 73.9789C40.3106 73.992 40.2984 74 40.2842 74H39.0351C39.0228 74 39.0122 73.9942 39.0056 73.9838C38.999 73.9734 38.9982 73.9614 39.0034 73.9501L41.2985 69.0203C41.3044 69.0076 41.3164 69 41.3303 69H41.7688C41.7828 69 41.7947 69.0076 41.8005 69.0202L44.1007 73.95C44.106 73.9613 44.1052 73.9733 44.0986 73.9838C44.092 73.9942 44.0813 74 44.069 74H42.82C42.8058 74 42.7937 73.9921 42.7879 73.979L42.4959 73.3125C42.4901 73.2995 42.478 73.2916 42.4638 73.2916H40.6371C40.6228 73.2916 40.6106 73.2996 40.605 73.3127ZM63.9132 71.1431L62.6843 73.9789C62.6787 73.992 62.6665 74 62.6522 74H61.4032C61.3908 74 61.3802 73.9942 61.3736 73.9838C61.367 73.9734 61.3662 73.9614 61.3714 73.9501L63.6665 69.0203C63.6724 69.0076 63.6844 69 63.6983 69H64.1369C64.1508 69 64.1627 69.0076 64.1686 69.0202L66.4688 73.95C66.474 73.9613 66.4733 73.9733 66.4666 73.9838C66.46 73.9942 66.4494 74 66.437 74H65.188C65.1738 74 65.1617 73.9921 65.156 73.979L63.9132 71.1431ZM68.3448 71.2933V72.7556C68.3448 72.7737 68.3595 72.7885 68.3775 72.7885H69.8159C70.3875 72.7885 70.6733 72.5232 70.6733 71.9928C70.6733 71.7336 70.6056 71.5467 70.4702 71.4322C70.3348 71.3177 70.1167 71.2604 69.8159 71.2604H68.3775C68.3595 71.2604 68.3448 71.2752 68.3448 71.2933ZM44.8239 69H47.7424C48.3501 69 48.8495 69.1854 49.2406 69.5561C49.6317 69.9268 49.8273 70.4045 49.8273 70.9892C49.8273 71.5739 49.6317 72.044 49.2406 72.3996C48.8495 72.7553 48.3501 72.9331 47.7424 72.9331H46.1506C46.1326 72.9331 46.1178 72.9479 46.1178 72.9659V73.9672C46.1178 73.9853 46.1031 74 46.0852 74H44.8239C44.8058 74 44.7911 73.9853 44.7911 73.9672V69.0328C44.7911 69.0148 44.8058 69 44.8239 69ZM46.1178 70.2444V71.6887C46.1178 71.7068 46.1326 71.7216 46.1506 71.7216H47.6882C47.9289 71.7216 48.123 71.6582 48.2704 71.5317C48.4178 71.4051 48.4915 71.2242 48.4915 70.9892C48.4915 70.7541 48.4178 70.5657 48.2704 70.4241C48.123 70.2824 47.9289 70.2116 47.6882 70.2116H46.1506C46.1326 70.2116 46.1178 70.2264 46.1178 70.2444ZM56.2679 69H60.7962C60.8143 69 60.829 69.0148 60.829 69.0328V70.1698C60.829 70.1878 60.8143 70.2025 60.7962 70.2025H57.5946C57.5766 70.2025 57.5619 70.2173 57.5619 70.2354V70.8297C57.5619 70.8479 57.5766 70.8626 57.5946 70.8626H60.4624C60.4804 70.8626 60.4951 70.8773 60.4951 70.8954V72.0323C60.4951 72.0504 60.4804 72.0651 60.4624 72.0651H57.5946C57.5766 72.0651 57.5619 72.0799 57.5619 72.098V72.7375C57.5619 72.7556 57.5766 72.7704 57.5946 72.7704H60.9136C60.9317 72.7704 60.9464 72.7851 60.9464 72.8032V73.9672C60.9464 73.9853 60.9317 74 60.9136 74H56.2679C56.2499 74 56.2352 73.9853 56.2352 73.9672V69.0328C56.2352 69.0148 56.2499 69 56.2679 69Z" fill="#253463"/>
</g>
<defs>
<clipPath id="clip0_390_1131">
<rect width="110" height="107" fill="white"/>
</clipPath>
</defs>
</svg>
