<svg width="33" height="33" viewBox="0 0 33 33" fill="none" xmlns="http://www.w3.org/2000/svg">
<path opacity="0.4" d="M29.761 18.851C29.561 16.651 28.9743 14.3044 24.6943 14.3044H7.68095C3.40095 14.3044 2.82762 16.651 2.61429 18.851L1.86762 26.9711C1.77429 27.9844 2.10762 28.9977 2.80095 29.7577C3.50762 30.5311 4.50762 30.9711 5.57429 30.9711H8.08095C10.241 30.9711 10.6543 29.731 10.921 28.9177L11.1876 28.1177C11.4943 27.1977 11.5743 26.9711 12.7743 26.9711H19.601C20.801 26.9711 20.841 27.1044 21.1876 28.1177L21.4543 28.9177C21.721 29.731 22.1343 30.9711 24.2943 30.9711H26.801C27.8543 30.9711 28.8676 30.5311 29.5743 29.7577C30.2676 28.9977 30.601 27.9844 30.5076 26.9711L29.761 18.851Z" fill="#83899F"/>
<path d="M28.1876 10.3044H26.8543C26.841 10.3044 26.841 10.3044 26.8276 10.3044L26.321 7.89104C25.841 5.55771 24.841 3.41104 20.8676 3.41104H17.1876H15.1876H11.5076C7.53429 3.41104 6.53429 5.55771 6.05429 7.89104L5.54762 10.3044C5.53429 10.3044 5.53429 10.3044 5.52096 10.3044H4.18762C3.64096 10.3044 3.18762 10.7577 3.18762 11.3044C3.18762 11.851 3.64096 12.3044 4.18762 12.3044H5.13429L4.57429 14.971C5.29429 14.5577 6.29429 14.3044 7.68096 14.3044H24.6943C26.081 14.3044 27.081 14.5577 27.801 14.971L27.241 12.3044H28.1876C28.7343 12.3044 29.1876 11.851 29.1876 11.3044C29.1876 10.7577 28.7343 10.3044 28.1876 10.3044Z" fill="#1B364A"/>
<path d="M12.1876 21.6377H8.18762C7.64096 21.6377 7.18762 21.1844 7.18762 20.6377C7.18762 20.091 7.64096 19.6377 8.18762 19.6377H12.1876C12.7343 19.6377 13.1876 20.091 13.1876 20.6377C13.1876 21.1844 12.7343 21.6377 12.1876 21.6377Z" fill="#1B364A"/>
<path d="M24.1876 21.6377H20.1876C19.641 21.6377 19.1876 21.1844 19.1876 20.6377C19.1876 20.091 19.641 19.6377 20.1876 19.6377H24.1876C24.7343 19.6377 25.1876 20.091 25.1876 20.6377C25.1876 21.1844 24.7343 21.6377 24.1876 21.6377Z" fill="#1B364A"/>
</svg>
