<svg width="33" height="33" viewBox="0 0 33 33" fill="none" xmlns="http://www.w3.org/2000/svg">
<path opacity="0.4" d="M29.7856 11.0511V20.851C29.399 20.6644 28.9723 20.531 28.4923 20.451L28.079 20.3844L27.7323 19.6644C26.9989 18.1711 25.799 17.3044 24.4523 17.3044C23.1056 17.3044 21.9056 18.1711 21.1723 19.6644L20.8123 20.3844L20.4123 20.451C18.8256 20.7177 17.6789 21.5977 17.2656 22.851C16.8656 24.1177 17.279 25.5044 18.4123 26.651L18.8256 27.0644L18.7856 27.2244C18.519 28.411 18.6256 29.3177 18.879 29.9711H10.8656C6.01229 29.9711 3.11896 27.0777 3.11896 22.2244V11.0511C3.11896 6.19772 6.01229 3.30438 10.8656 3.30438H22.039C26.8923 3.30438 29.7856 6.19772 29.7856 11.0511Z" fill="#83899F"/>
<path d="M25.9456 20.5577L26.3723 21.4244C26.5856 21.851 27.1323 22.251 27.5856 22.331L28.159 22.4244C29.9056 22.7177 30.3056 23.9977 29.0656 25.251L28.5323 25.7844C28.1723 26.1444 27.9856 26.8377 28.0923 27.3444L28.159 27.6644C28.639 29.771 27.5189 30.5844 25.6923 29.4777L25.3056 29.2377C24.839 28.9577 24.0656 28.9577 23.5989 29.2377L23.2123 29.4777C21.3723 30.5844 20.2656 29.771 20.7456 27.6644L20.8123 27.3444C20.9189 26.851 20.7323 26.1444 20.3723 25.7844L19.839 25.251C18.599 23.9844 18.999 22.7177 20.7456 22.4244L21.3189 22.331C21.7856 22.251 22.319 21.851 22.5323 21.4244L22.959 20.5577C23.7856 18.891 25.1189 18.891 25.9456 20.5577Z" fill="#1B364A"/>
<path fill-rule="evenodd" clip-rule="evenodd" d="M21.9583 11.194C22.3948 11.5324 22.4743 12.1605 22.136 12.597L19.05 16.578C18.2569 17.5811 16.7944 17.764 15.7742 16.9757L15.7672 16.9703L13.3318 15.0538C13.1813 14.9396 12.9715 14.968 12.8572 15.1154C12.8571 15.1156 12.8573 15.1153 12.8572 15.1154L9.6845 19.2346C9.3475 19.6721 8.7196 19.7536 8.28205 19.4166C7.84451 19.0796 7.76301 18.4517 8.10002 18.0142L11.2743 13.8929C12.0662 12.8681 13.5345 12.6829 14.5571 13.4731L14.564 13.4785L16.9994 15.3949C17.1515 15.5104 17.3657 15.4806 17.4792 15.34L20.5553 11.3717C20.8936 10.9352 21.5218 10.8557 21.9583 11.194Z" fill="#1B364A"/>
</svg>
