<svg width="32" height="32" viewBox="0 0 32 32" fill="none" xmlns="http://www.w3.org/2000/svg">
<path opacity="0.4" d="M24 25.1466H22.9867C21.92 25.1466 20.9067 25.56 20.16 26.3066L17.88 28.56C16.84 29.5866 15.1467 29.5866 14.1067 28.56L11.8267 26.3066C11.08 25.56 10.0533 25.1466 9 25.1466H8C5.78667 25.1466 4 23.3733 4 21.1867V6.63997C4 4.4533 5.78667 2.68001 8 2.68001H24C26.2133 2.68001 28 4.4533 28 6.63997V21.1867C28 23.36 26.2133 25.1466 24 25.1466Z" fill="#83899F"/>
<path d="M16 13.88C17.7158 13.88 19.1067 12.4891 19.1067 10.7734C19.1067 9.0576 17.7158 7.66667 16 7.66667C14.2842 7.66667 12.8933 9.0576 12.8933 10.7734C12.8933 12.4891 14.2842 13.88 16 13.88Z" fill="#1B364A"/>
<path d="M19.5733 20.08C20.6533 20.08 21.28 18.88 20.68 17.9867C19.7733 16.64 18.0133 15.7333 16 15.7333C13.9867 15.7333 12.2266 16.64 11.32 17.9867C10.72 18.88 11.3467 20.08 12.4267 20.08H19.5733Z" fill="#1B364A"/>
</svg>
