<svg width="42" height="43" viewBox="0 0 42 43" fill="none" xmlns="http://www.w3.org/2000/svg">
<path opacity="0.4" d="M21 39.1348C30.665 39.1348 38.5 31.2997 38.5 21.6348C38.5 11.9698 30.665 4.13477 21 4.13477C11.335 4.13477 3.5 11.9698 3.5 21.6348C3.5 31.2997 11.335 39.1348 21 39.1348Z" fill="#292D32"/>
<path d="M21 12.7622C17.3775 12.7622 14.4375 15.7022 14.4375 19.3247C14.4375 22.8772 17.22 25.7647 20.9125 25.8697C20.965 25.8697 21.035 25.8697 21.07 25.8697C21.105 25.8697 21.1575 25.8697 21.1925 25.8697C21.21 25.8697 21.2275 25.8697 21.2275 25.8697C24.7625 25.7472 27.545 22.8772 27.5625 19.3247C27.5625 15.7022 24.6225 12.7622 21 12.7622Z" fill="#292D32"/>
<path d="M32.865 34.4971C29.75 37.3671 25.585 39.1346 21 39.1346C16.415 39.1346 12.25 37.3671 9.13501 34.4971C9.55501 32.9046 10.6925 31.4521 12.355 30.3321C17.1325 27.1471 24.9025 27.1471 29.645 30.3321C31.325 31.4521 32.445 32.9046 32.865 34.4971Z" fill="#292D32"/>
</svg>
