<svg width="24" height="25" viewBox="0 0 24 25" fill="none" xmlns="http://www.w3.org/2000/svg">
<path d="M12.6777 20.5741C12.9524 20.6381 12.9776 20.9979 12.71 21.0871L11.13 21.6071C7.15998 22.8871 5.06997 21.8171 3.77998 17.8471L2.49997 13.8971C1.21997 9.92711 2.27997 7.82711 6.24997 6.54711L6.77397 6.37358C7.17684 6.24016 7.5689 6.64422 7.45451 7.05289C7.3978 7.25547 7.34326 7.46687 7.28997 7.68711L6.30997 11.8771C5.20997 16.5871 6.81997 19.1871 11.53 20.3071L12.6777 20.5741Z" fill="#7F8C9B"/>
<path d="M17.17 3.8272L15.5 3.4372C12.16 2.6472 10.17 3.2972 9 5.7172C8.7 6.3272 8.46 7.0672 8.26 7.9172L7.28 12.1072C6.3 16.2872 7.59 18.3472 11.76 19.3372L13.44 19.7372C14.02 19.8772 14.56 19.9672 15.06 20.0072C18.18 20.3072 19.84 18.8472 20.68 15.2372L21.66 11.0572C22.64 6.8772 21.36 4.8072 17.17 3.8272ZM15.29 13.9472C15.2 14.2872 14.9 14.5072 14.56 14.5072C14.5 14.5072 14.44 14.4972 14.37 14.4872L11.46 13.7472C11.06 13.6472 10.82 13.2372 10.92 12.8372C11.02 12.4372 11.43 12.1972 11.83 12.2972L14.74 13.0372C15.15 13.1372 15.39 13.5472 15.29 13.9472ZM18.22 10.5672C18.13 10.9072 17.83 11.1272 17.49 11.1272C17.43 11.1272 17.37 11.1172 17.3 11.1072L12.45 9.8772C12.05 9.7772 11.81 9.3672 11.91 8.9672C12.01 8.5672 12.42 8.3272 12.82 8.4272L17.67 9.6572C18.08 9.7472 18.32 10.1572 18.22 10.5672Z" fill="#7F8C9B"/>
</svg>
