<svg width="24" height="25" viewBox="0 0 24 25" fill="none" xmlns="http://www.w3.org/2000/svg">
<path opacity="0.4" d="M21.66 11.0572L20.68 15.2372C19.84 18.8472 18.18 20.3072 15.06 20.0072C14.56 19.9672 14.02 19.8772 13.44 19.7372L11.76 19.3372C7.59 18.3472 6.3 16.2872 7.28 12.1072L8.26 7.9172C8.46 7.0672 8.7 6.3272 9 5.7172C10.17 3.2972 12.16 2.6472 15.5 3.4372L17.17 3.8272C21.36 4.8072 22.64 6.8772 21.66 11.0572Z" fill="#292D32"/>
<path d="M15.06 20.0073C14.44 20.4273 13.66 20.7773 12.71 21.0873L11.13 21.6073C7.15998 22.8873 5.06997 21.8173 3.77997 17.8473L2.49997 13.8973C1.21997 9.92729 2.27997 7.82729 6.24997 6.54729L7.82997 6.02729C8.23997 5.89729 8.62997 5.78729 8.99997 5.71729C8.69997 6.32729 8.45997 7.06729 8.25997 7.91729L7.27997 12.1073C6.29997 16.2873 7.58998 18.3473 11.76 19.3373L13.44 19.7373C14.02 19.8773 14.56 19.9673 15.06 20.0073Z" fill="#292D32"/>
<path d="M17.49 11.1272C17.43 11.1272 17.37 11.1172 17.3 11.1072L12.45 9.87721C12.05 9.77721 11.81 9.36721 11.91 8.96721C12.01 8.56721 12.42 8.32721 12.82 8.42721L17.67 9.65721C18.07 9.75721 18.31 10.1672 18.21 10.5672C18.13 10.8972 17.82 11.1272 17.49 11.1272Z" fill="#292D32"/>
<path d="M14.56 14.5071C14.5 14.5071 14.44 14.4971 14.37 14.4871L11.46 13.7471C11.06 13.6471 10.82 13.2371 10.92 12.8371C11.02 12.4371 11.43 12.1971 11.83 12.2971L14.74 13.0371C15.14 13.1371 15.38 13.5471 15.28 13.9471C15.2 14.2871 14.9 14.5071 14.56 14.5071Z" fill="#292D32"/>
</svg>
