<svg width="24" height="25" viewBox="0 0 24 25" fill="none" xmlns="http://www.w3.org/2000/svg">
<path d="M18 3.61719H6C3.79 3.61719 2 5.39719 2 7.58719V17.6472C2 19.8372 3.79 21.6172 6 21.6172H18C20.21 21.6172 22 19.8372 22 17.6472V7.58719C22 5.39719 20.21 3.61719 18 3.61719ZM8.5 7.78719C9.77 7.78719 10.81 8.82719 10.81 10.0972C10.81 11.3672 9.77 12.4072 8.5 12.4072C7.23 12.4072 6.19 11.3672 6.19 10.0972C6.19 8.82719 7.23 7.78719 8.5 7.78719ZM12.37 17.2772C12.28 17.3772 12.14 17.4372 12 17.4372H5C4.86 17.4372 4.72 17.3772 4.63 17.2772C4.54 17.1772 4.49 17.0372 4.5 16.8972C4.67 15.2172 6.01 13.8872 7.69 13.7272C8.22 13.6772 8.77 13.6772 9.3 13.7272C10.98 13.8872 12.33 15.2172 12.49 16.8972C12.51 17.0372 12.46 17.1772 12.37 17.2772ZM19 17.3672H17C16.59 17.3672 16.25 17.0272 16.25 16.6172C16.25 16.2072 16.59 15.8672 17 15.8672H19C19.41 15.8672 19.75 16.2072 19.75 16.6172C19.75 17.0272 19.41 17.3672 19 17.3672ZM19 13.3672H15C14.59 13.3672 14.25 13.0272 14.25 12.6172C14.25 12.2072 14.59 11.8672 15 11.8672H19C19.41 11.8672 19.75 12.2072 19.75 12.6172C19.75 13.0272 19.41 13.3672 19 13.3672ZM19 9.36719H14C13.59 9.36719 13.25 9.02719 13.25 8.61719C13.25 8.20719 13.59 7.86719 14 7.86719H19C19.41 7.86719 19.75 8.20719 19.75 8.61719C19.75 9.02719 19.41 9.36719 19 9.36719Z" fill="#7F8C9B"/>
</svg>
