<svg width="24" height="25" viewBox="0 0 24 25" fill="none" xmlns="http://www.w3.org/2000/svg">
<path opacity="0.4" d="M18 3.61719H6C3.79 3.61719 2 5.39719 2 7.58719V17.6472C2 19.8372 3.79 21.6172 6 21.6172H18C20.21 21.6172 22 19.8372 22 17.6472V7.58719C22 5.39719 20.21 3.61719 18 3.61719Z" fill="#292D32"/>
<path d="M19 9.36719H14C13.59 9.36719 13.25 9.02719 13.25 8.61719C13.25 8.20719 13.59 7.86719 14 7.86719H19C19.41 7.86719 19.75 8.20719 19.75 8.61719C19.75 9.02719 19.41 9.36719 19 9.36719Z" fill="#292D32"/>
<path d="M19 13.3672H15C14.59 13.3672 14.25 13.0272 14.25 12.6172C14.25 12.2072 14.59 11.8672 15 11.8672H19C19.41 11.8672 19.75 12.2072 19.75 12.6172C19.75 13.0272 19.41 13.3672 19 13.3672Z" fill="#292D32"/>
<path d="M19 17.3672H17C16.59 17.3672 16.25 17.0272 16.25 16.6172C16.25 16.2072 16.59 15.8672 17 15.8672H19C19.41 15.8672 19.75 16.2072 19.75 16.6172C19.75 17.0272 19.41 17.3672 19 17.3672Z" fill="#292D32"/>
<path d="M8.5 12.4071C9.77578 12.4071 10.81 11.3729 10.81 10.0971C10.81 8.82133 9.77578 7.78711 8.5 7.78711C7.22422 7.78711 6.19 8.82133 6.19 10.0971C6.19 11.3729 7.22422 12.4071 8.5 12.4071Z" fill="#292D32"/>
<path d="M9.30003 13.7272C8.77003 13.6772 8.22003 13.6772 7.69003 13.7272C6.01003 13.8872 4.66003 15.2172 4.50003 16.8972C4.49003 17.0372 4.53003 17.1772 4.63003 17.2772C4.73003 17.3772 4.86003 17.4472 5.00003 17.4472H12C12.14 17.4472 12.28 17.3872 12.37 17.2872C12.46 17.1872 12.51 17.0472 12.5 16.9072C12.33 15.2172 10.99 13.8872 9.30003 13.7272Z" fill="#292D32"/>
</svg>
