<svg width="24" height="25" viewBox="0 0 24 25" fill="none" xmlns="http://www.w3.org/2000/svg">
<path d="M22 5.46712V17.3571C22 18.3271 21.21 19.2171 20.24 19.3371L19.93 19.3771C18.29 19.5971 15.98 20.2771 14.12 21.0571C13.47 21.3271 12.75 20.8371 12.75 20.1271V6.21712C12.75 5.84712 12.96 5.50712 13.29 5.32712C15.12 4.33712 17.89 3.45712 19.77 3.29712H19.83C21.03 3.29712 22 4.26712 22 5.46712Z" fill="#7F8C9B"/>
<path d="M10.71 5.32712C8.87999 4.33712 6.10999 3.45712 4.22999 3.29712H4.15999C2.95999 3.29712 1.98999 4.26712 1.98999 5.46712V17.3571C1.98999 18.3271 2.77999 19.2171 3.74999 19.3371L4.05999 19.3771C5.69999 19.5971 8.00999 20.2771 9.86999 21.0571C10.52 21.3271 11.24 20.8371 11.24 20.1271V6.21712C11.24 5.83712 11.04 5.50712 10.71 5.32712ZM4.99999 8.35712H7.24999C7.65999 8.35712 7.99999 8.69712 7.99999 9.10712C7.99999 9.52712 7.65999 9.85712 7.24999 9.85712H4.99999C4.58999 9.85712 4.24999 9.52712 4.24999 9.10712C4.24999 8.69712 4.58999 8.35712 4.99999 8.35712ZM7.99999 12.8571H4.99999C4.58999 12.8571 4.24999 12.5271 4.24999 12.1071C4.24999 11.6971 4.58999 11.3571 4.99999 11.3571H7.99999C8.40999 11.3571 8.74999 11.6971 8.74999 12.1071C8.74999 12.5271 8.40999 12.8571 7.99999 12.8571Z" fill="#7F8C9B"/>
</svg>
