<svg width="24" height="25" viewBox="0 0 24 25" fill="none" xmlns="http://www.w3.org/2000/svg">
<path opacity="0.4" d="M12 5.91713V21.9471C11.83 21.9471 11.65 21.9171 11.51 21.8371L11.47 21.8171C9.55 20.7671 6.2 19.6671 4.03 19.3771L3.74 19.3371C2.78 19.2171 2 18.3171 2 17.3571V5.27713C2 4.08713 2.97 3.18713 4.16 3.28713C6.26 3.45713 9.44 4.51713 11.22 5.62713L11.47 5.77713C11.62 5.86713 11.81 5.91713 12 5.91713Z" fill="#292D32"/>
<path d="M22 5.28722V17.3572C22 18.3172 21.22 19.2172 20.26 19.3372L19.93 19.3772C17.75 19.6672 14.39 20.7772 12.47 21.8372C12.34 21.9172 12.18 21.9472 12 21.9472V5.91722C12.19 5.91722 12.38 5.86722 12.53 5.77722L12.7 5.66722C14.48 4.54722 17.67 3.47722 19.77 3.29722H19.83C21.02 3.19722 22 4.08722 22 5.28722Z" fill="#292D32"/>
<path d="M7.75 9.85718H5.5C5.09 9.85718 4.75 9.51718 4.75 9.10718C4.75 8.69718 5.09 8.35718 5.5 8.35718H7.75C8.16 8.35718 8.5 8.69718 8.5 9.10718C8.5 9.51718 8.16 9.85718 7.75 9.85718Z" fill="#292D32"/>
<path d="M8.5 12.8572H5.5C5.09 12.8572 4.75 12.5172 4.75 12.1072C4.75 11.6972 5.09 11.3572 5.5 11.3572H8.5C8.91 11.3572 9.25 11.6972 9.25 12.1072C9.25 12.5172 8.91 12.8572 8.5 12.8572Z" fill="#292D32"/>
</svg>
