<svg width="24" height="25" viewBox="0 0 24 25" fill="none" xmlns="http://www.w3.org/2000/svg">
<path opacity="0.4" d="M22.18 14.2772C22.03 12.6272 21.59 10.8672 18.38 10.8672H5.61996C2.40996 10.8672 1.97996 12.6272 1.81996 14.2772L1.25996 20.3672C1.18996 21.1272 1.43996 21.8872 1.95996 22.4572C2.48996 23.0372 3.23996 23.3672 4.03996 23.3672H5.91996C7.53996 23.3672 7.84996 22.4372 8.04996 21.8272L8.24996 21.2272C8.47996 20.5372 8.53996 20.3672 9.43996 20.3672H14.56C15.46 20.3672 15.49 20.4672 15.75 21.2272L15.95 21.8272C16.15 22.4372 16.46 23.3672 18.08 23.3672H19.96C20.75 23.3672 21.51 23.0372 22.04 22.4572C22.56 21.8872 22.81 21.1272 22.74 20.3672L22.18 14.2772Z" fill="#292D32"/>
<path d="M21 7.86727H20C19.99 7.86727 19.99 7.86727 19.98 7.86727L19.6 6.05727C19.24 4.30727 18.49 2.69727 15.51 2.69727H12.75H11.25H8.49C5.51 2.69727 4.76 4.30727 4.4 6.05727L4.02 7.86727C4.01 7.86727 4.01 7.86727 4 7.86727H3C2.59 7.86727 2.25 8.20727 2.25 8.61727C2.25 9.02727 2.59 9.36727 3 9.36727H3.71L3.29 11.3673C3.83 11.0573 4.58 10.8673 5.62 10.8673H18.38C19.42 10.8673 20.17 11.0573 20.71 11.3673L20.29 9.36727H21C21.41 9.36727 21.75 9.02727 21.75 8.61727C21.75 8.20727 21.41 7.86727 21 7.86727Z" fill="#292D32"/>
<path d="M9 16.3672H6C5.59 16.3672 5.25 16.0272 5.25 15.6172C5.25 15.2072 5.59 14.8672 6 14.8672H9C9.41 14.8672 9.75 15.2072 9.75 15.6172C9.75 16.0272 9.41 16.3672 9 16.3672Z" fill="#292D32"/>
<path d="M18 16.3672H15C14.59 16.3672 14.25 16.0272 14.25 15.6172C14.25 15.2072 14.59 14.8672 15 14.8672H18C18.41 14.8672 18.75 15.2072 18.75 15.6172C18.75 16.0272 18.41 16.3672 18 16.3672Z" fill="#292D32"/>
</svg>
