<svg width="24" height="25" viewBox="0 0 24 25" fill="none" xmlns="http://www.w3.org/2000/svg">
<path opacity="0.4" d="M2 13.4971V11.7371C2 10.6971 2.85 9.83712 3.9 9.83712C5.71 9.83712 6.45 8.55712 5.54 6.98712C5.02 6.08712 5.33 4.91712 6.24 4.39712L7.97 3.40712C8.76 2.93712 9.78 3.21712 10.25 4.00712L10.36 4.19712C11.26 5.76712 12.74 5.76712 13.65 4.19712L13.76 4.00712C14.23 3.21712 15.25 2.93712 16.04 3.40712L17.77 4.39712C18.68 4.91712 18.99 6.08712 18.47 6.98712C17.56 8.55712 18.3 9.83712 20.11 9.83712C21.15 9.83712 22.01 10.6871 22.01 11.7371V13.4971C22.01 14.5371 21.16 15.3971 20.11 15.3971C18.3 15.3971 17.56 16.6771 18.47 18.2471C18.99 19.1571 18.68 20.3171 17.77 20.8371L16.04 21.8271C15.25 22.2971 14.23 22.0171 13.76 21.2271L13.65 21.0371C12.75 19.4671 11.27 19.4671 10.36 21.0371L10.25 21.2271C9.78 22.0171 8.76 22.2971 7.97 21.8271L6.24 20.8371C5.33 20.3171 5.02 19.1471 5.54 18.2471C6.45 16.6771 5.71 15.3971 3.9 15.3971C2.85 15.3971 2 14.5371 2 13.4971Z" fill="#292D32"/>
<path d="M12 15.8672C13.7949 15.8672 15.25 14.4121 15.25 12.6172C15.25 10.8223 13.7949 9.36719 12 9.36719C10.2051 9.36719 8.75 10.8223 8.75 12.6172C8.75 14.4121 10.2051 15.8672 12 15.8672Z" fill="#292D32"/>
</svg>
