<svg width="24" height="25" viewBox="0 0 24 25" fill="none" xmlns="http://www.w3.org/2000/svg">
<path d="M20.1 9.83712C18.29 9.83712 17.55 8.55712 18.45 6.98712C18.97 6.07712 18.66 4.91712 17.75 4.39712L16.02 3.40712C15.23 2.93712 14.21 3.21712 13.74 4.00712L13.63 4.19712C12.73 5.76712 11.25 5.76712 10.34 4.19712L10.23 4.00712C9.78 3.21712 8.76 2.93712 7.97 3.40712L6.24 4.39712C5.33 4.91712 5.02 6.08712 5.54 6.99712C6.45 8.55712 5.71 9.83712 3.9 9.83712C2.86 9.83712 2 10.6871 2 11.7371V13.4971C2 14.5371 2.85 15.3971 3.9 15.3971C5.71 15.3971 6.45 16.6771 5.54 18.2471C5.02 19.1571 5.33 20.3171 6.24 20.8371L7.97 21.8271C8.76 22.2971 9.78 22.0171 10.25 21.2271L10.36 21.0371C11.26 19.4671 12.74 19.4671 13.65 21.0371L13.76 21.2271C14.23 22.0171 15.25 22.2971 16.04 21.8271L17.77 20.8371C18.68 20.3171 18.99 19.1471 18.47 18.2471C17.56 16.6771 18.3 15.3971 20.11 15.3971C21.15 15.3971 22.01 14.5471 22.01 13.4971V11.7371C22 10.6971 21.15 9.83712 20.1 9.83712ZM12 15.8671C10.21 15.8671 8.75 14.4071 8.75 12.6171C8.75 10.8271 10.21 9.36712 12 9.36712C13.79 9.36712 15.25 10.8271 15.25 12.6171C15.25 14.4071 13.79 15.8671 12 15.8671Z" fill="#7F8C9B"/>
</svg>
