<svg width="24" height="25" viewBox="0 0 24 25" fill="none" xmlns="http://www.w3.org/2000/svg">
<path opacity="0.4" d="M22 8.42719V16.8072C22 19.6172 20.71 21.5472 18.44 22.2772C17.78 22.5072 17.02 22.6172 16.19 22.6172H7.81C6.98 22.6172 6.22 22.5072 5.56 22.2772C3.29 21.5472 2 19.6172 2 16.8072V8.42719C2 4.78718 4.17 2.61719 7.81 2.61719H16.19C19.83 2.61719 22 4.78718 22 8.42719Z" fill="#292D32"/>
<path d="M18.4401 22.2772C17.7801 22.5072 17.0201 22.6172 16.1901 22.6172H7.81006C6.98006 22.6172 6.22006 22.5072 5.56006 22.2772C5.91006 19.6372 8.67006 17.5872 12.0001 17.5872C15.3301 17.5872 18.0901 19.6372 18.4401 22.2772Z" fill="#292D32"/>
<path d="M15.58 12.1972C15.58 14.1772 13.98 15.7872 12 15.7872C10.02 15.7872 8.42004 14.1772 8.42004 12.1972C8.42004 10.2172 10.02 8.61719 12 8.61719C13.98 8.61719 15.58 10.2172 15.58 12.1972Z" fill="#292D32"/>
</svg>
