<svg width="24" height="25" viewBox="0 0 24 25" fill="none" xmlns="http://www.w3.org/2000/svg">
<path d="M16.19 2.61719H7.81C4.17 2.61719 2 4.78719 2 8.42719V16.8072C2 19.6172 3.29 21.5472 5.56 22.2772C6.22 22.5072 6.98 22.6172 7.81 22.6172H16.19C17.02 22.6172 17.78 22.5072 18.44 22.2772C20.71 21.5472 22 19.6172 22 16.8072V8.42719C22 4.78719 19.83 2.61719 16.19 2.61719ZM20.5 16.8072C20.5 18.9472 19.66 20.2972 17.97 20.8572C17 18.9472 14.7 17.5872 12 17.5872C9.3 17.5872 7.01 18.9372 6.03 20.8572H6.02C4.35 20.3172 3.5 18.9572 3.5 16.8172V8.42719C3.5 5.60719 4.99 4.11719 7.81 4.11719H16.19C19.01 4.11719 20.5 5.60719 20.5 8.42719V16.8072Z" fill="#7F8C9B"/>
<path d="M12 8.61719C10.02 8.61719 8.42004 10.2172 8.42004 12.1972C8.42004 14.1772 10.02 15.7872 12 15.7872C13.98 15.7872 15.58 14.1772 15.58 12.1972C15.58 10.2172 13.98 8.61719 12 8.61719Z" fill="#7F8C9B"/>
</svg>
