<svg width="24" height="25" viewBox="0 0 24 25" fill="none" xmlns="http://www.w3.org/2000/svg">
<path d="M22 22.6172H2C1.59 22.6172 1.25 22.2772 1.25 21.8672C1.25 21.4572 1.59 21.1172 2 21.1172H22C22.41 21.1172 22.75 21.4572 22.75 21.8672C22.75 22.2772 22.41 22.6172 22 22.6172Z" fill="#292D32"/>
<path d="M9.75 4.61719V22.6172H14.25V4.61719C14.25 3.51719 13.8 2.61719 12.45 2.61719H11.55C10.2 2.61719 9.75 3.51719 9.75 4.61719Z" fill="#292D32"/>
<path opacity="0.4" d="M3 10.6172V22.6172H7V10.6172C7 9.51719 6.6 8.61719 5.4 8.61719H4.6C3.4 8.61719 3 9.51719 3 10.6172Z" fill="#292D32"/>
<path opacity="0.4" d="M17 15.6172V22.6172H21V15.6172C21 14.5172 20.6 13.6172 19.4 13.6172H18.6C17.4 13.6172 17 14.5172 17 15.6172Z" fill="#292D32"/>
</svg>
