<svg width="24" height="25" viewBox="0 0 24 25" fill="none" xmlns="http://www.w3.org/2000/svg">
<path opacity="0.4" d="M5.73998 16.3422C5.84998 15.8522 5.64998 15.1522 5.29998 14.8022L2.86998 12.3722C2.10998 11.6122 1.80998 10.8022 2.02998 10.1022C2.25998 9.40216 2.96998 8.92216 4.02998 8.74216L7.14998 8.22216C7.59998 8.14216 8.14998 7.74216 8.35998 7.33216L10.08 3.88216C10.58 2.89216 11.26 2.34216 12 2.34216C12.74 2.34216 13.42 2.89216 13.92 3.88216L15.64 7.33216C15.77 7.59216 16.04 7.84216 16.33 8.01216L5.55998 18.7822C5.41998 18.9222 5.17998 18.7922 5.21998 18.5922L5.73998 16.3422Z" fill="#83899F"/>
<path d="M18.7 14.8022C18.34 15.1622 18.14 15.8522 18.26 16.3422L18.95 19.3522C19.24 20.6022 19.06 21.5422 18.44 21.9922C18.19 22.1722 17.89 22.2622 17.54 22.2622C17.03 22.2622 16.43 22.0722 15.77 21.6822L12.84 19.9422C12.38 19.6722 11.62 19.6722 11.16 19.9422L8.22999 21.6822C7.11999 22.3322 6.16999 22.4422 5.55999 21.9922C5.32999 21.8222 5.15999 21.5922 5.04999 21.2922L17.21 9.13216C17.67 8.67216 18.32 8.46216 18.95 8.57216L19.96 8.74216C21.02 8.92216 21.73 9.40216 21.96 10.1022C22.18 10.8022 21.88 11.6122 21.12 12.3722L18.7 14.8022Z" fill="#1B364A"/>
</svg>
