<svg width="31" height="31" viewBox="0 0 31 31" fill="none" xmlns="http://www.w3.org/2000/svg">
<rect x="0.263672" y="0.0804749" width="30" height="30" rx="6" fill="#D86962"/>
<path fill-rule="evenodd" clip-rule="evenodd" d="M16.2633 7.88989C16.2633 7.33761 15.8156 6.88989 15.2633 6.88989C14.711 6.88989 14.2633 7.33761 14.2633 7.88989V14.0805H8.07275C7.52047 14.0805 7.07275 14.5282 7.07275 15.0805C7.07275 15.6328 7.52047 16.0805 8.07275 16.0805H14.2633V22.2711C14.2633 22.8234 14.711 23.2711 15.2633 23.2711C15.8156 23.2711 16.2633 22.8234 16.2633 22.2711V16.0805H22.454C23.0062 16.0805 23.454 15.6328 23.454 15.0805C23.454 14.5282 23.0062 14.0805 22.454 14.0805H16.2633V7.88989Z" fill="white"/>
</svg>
