<svg width="8" height="11" viewBox="0 0 8 11" fill="none" xmlns="http://www.w3.org/2000/svg">
<path fill-rule="evenodd" clip-rule="evenodd" d="M4.391 0.88562C4.66714 0.88562 4.891 1.10948 4.891 1.38562V8.78776L7.08128 6.59748C7.27654 6.40222 7.59312 6.40222 7.78838 6.59748C7.98365 6.79274 7.98365 7.10932 7.78838 7.30458L4.74645 10.3465C4.73699 10.3561 4.72714 10.3653 4.71693 10.3741C4.68932 10.3978 4.65974 10.4181 4.62876 10.4348C4.55805 10.4731 4.47706 10.4949 4.391 10.4949C4.30495 10.4949 4.22398 10.4731 4.15327 10.4349C4.12224 10.4181 4.0926 10.3978 4.06495 10.374C4.05479 10.3652 4.04498 10.3561 4.03555 10.3465L0.993615 7.30458C0.798352 7.10932 0.798352 6.79274 0.993615 6.59748C1.18888 6.40222 1.50546 6.40222 1.70072 6.59748L3.891 8.78776V1.38562C3.891 1.10948 4.11486 0.88562 4.391 0.88562Z" fill="#D86962"/>
</svg>
