<svg width="8" height="11" viewBox="0 0 8 11" fill="none" xmlns="http://www.w3.org/2000/svg">
<path fill-rule="evenodd" clip-rule="evenodd" d="M4.40247 10.4949C4.67862 10.4949 4.90247 10.271 4.90247 9.99487V2.59274L7.09275 4.78302C7.28801 4.97828 7.6046 4.97828 7.79986 4.78302C7.99512 4.58775 7.99512 4.27117 7.79986 4.07591L4.75793 1.03398C4.74846 1.02441 4.73861 1.01522 4.7284 1.00644C4.7008 0.982669 4.67121 0.962411 4.64024 0.945661C4.56952 0.907366 4.48854 0.885621 4.40247 0.885621C4.31642 0.885621 4.23545 0.907358 4.16475 0.945642C4.13371 0.96242 4.10407 0.98272 4.07642 1.00654C4.06626 1.01529 4.05646 1.02444 4.04703 1.03397L1.00509 4.07591C0.809827 4.27117 0.809827 4.58775 1.00509 4.78302C1.20035 4.97828 1.51693 4.97828 1.7122 4.78302L3.90247 2.59274V9.99487C3.90247 10.271 4.12633 10.4949 4.40247 10.4949Z" fill="#68B934"/>
</svg>
