<svg width="25" height="25" viewBox="0 0 25 25" fill="none" xmlns="http://www.w3.org/2000/svg">
<path d="M16.2906 2.93939H7.91059C4.27059 2.93939 2.10059 5.10939 2.10059 8.74939V17.1194C2.10059 20.7694 4.27059 22.9394 7.91059 22.9394H16.2806C19.9206 22.9394 22.0906 20.7694 22.0906 17.1294V8.74939C22.1006 5.10939 19.9306 2.93939 16.2906 2.93939ZM16.8806 10.6394L11.2106 16.3094C11.0706 16.4494 10.8806 16.5294 10.6806 16.5294C10.4806 16.5294 10.2906 16.4494 10.1506 16.3094L7.32059 13.4794C7.03059 13.1894 7.03059 12.7094 7.32059 12.4194C7.61059 12.1294 8.09059 12.1294 8.38059 12.4194L10.6806 14.7194L15.8206 9.57939C16.1106 9.28939 16.5906 9.28939 16.8806 9.57939C17.1706 9.86939 17.1706 10.3394 16.8806 10.6394Z" fill="#D86962"/>
</svg>
