<svg width="18" height="18" viewBox="0 0 18 18" fill="none" xmlns="http://www.w3.org/2000/svg">
<mask id="path-1-inside-1_194_1688" fill="white">
<path d="M17.5016 2.16835L15.6409 0.307662C15.5798 0.246569 15.5073 0.198106 15.4275 0.165042C15.3477 0.131978 15.2621 0.11496 15.1757 0.11496C15.0893 0.11496 15.0038 0.131978 14.924 0.165042C14.8442 0.198106 14.7717 0.246569 14.7106 0.307662L13.4746 1.54358L16.2657 4.33464L17.5016 3.09868C17.5627 3.03759 17.6111 2.96508 17.6442 2.88526C17.6773 2.80545 17.6943 2.71991 17.6943 2.63351C17.6943 2.54712 17.6773 2.46158 17.6442 2.38177C17.6111 2.30195 17.5627 2.22943 17.5016 2.16835Z"/>
</mask>
<path d="M17.5016 2.16835L15.6409 0.307662C15.5798 0.246569 15.5073 0.198106 15.4275 0.165042C15.3477 0.131978 15.2621 0.11496 15.1757 0.11496C15.0893 0.11496 15.0038 0.131978 14.924 0.165042C14.8442 0.198106 14.7717 0.246569 14.7106 0.307662L13.4746 1.54358L16.2657 4.33464L17.5016 3.09868C17.5627 3.03759 17.6111 2.96508 17.6442 2.88526C17.6773 2.80545 17.6943 2.71991 17.6943 2.63351C17.6943 2.54712 17.6773 2.46158 17.6442 2.38177C17.6111 2.30195 17.5627 2.22943 17.5016 2.16835Z" fill="#676E85"/>
<path d="M17.5016 2.16835L6.18788 13.4821L6.18897 13.4832L17.5016 2.16835ZM15.6409 0.307662L4.3261 11.6203L4.32719 11.6214L15.6409 0.307662ZM15.1757 0.11496V-15.885V0.11496ZM14.7106 0.307662L26.0241 11.6216L26.0254 11.6203L14.7106 0.307662ZM13.4746 1.54358L2.16111 -9.77034L-9.15302 1.54337L2.1609 12.8573L13.4746 1.54358ZM16.2657 4.33464L4.95196 15.6484L16.2659 26.9623L27.5796 15.6481L16.2657 4.33464ZM17.5016 3.09868L6.18897 -8.21612L6.18768 -8.21482L17.5016 3.09868ZM28.8153 -9.14536L26.9546 -11.006L4.32719 11.6214L6.18788 13.4821L28.8153 -9.14536ZM26.9557 -11.005C25.4089 -12.5521 23.5724 -13.7794 21.5511 -14.6167L9.30384 14.9468C7.44223 14.1756 5.75078 13.0452 4.3261 11.6203L26.9557 -11.005ZM21.5511 -14.6167C19.5299 -15.4541 17.3635 -15.885 15.1757 -15.885V16.115C13.1607 16.115 11.1654 15.718 9.30384 14.9468L21.5511 -14.6167ZM15.1757 -15.885C12.9879 -15.885 10.8215 -15.4541 8.80034 -14.6167L21.0476 14.9468C19.1861 15.718 17.1908 16.115 15.1757 16.115V-15.885ZM8.80034 -14.6167C6.77918 -13.7794 4.94269 -12.5522 3.39578 -11.005L26.0254 11.6203C24.6006 13.0453 22.9092 14.1756 21.0476 14.9468L8.80034 -14.6167ZM3.39708 -11.0063L2.16111 -9.77034L24.7881 12.8575L26.0241 11.6216L3.39708 -11.0063ZM2.1609 12.8573L4.95196 15.6484L27.5794 -6.97906L24.7883 -9.77012L2.1609 12.8573ZM27.5796 15.6481L28.8155 14.4122L6.18768 -8.21482L4.95175 -6.97886L27.5796 15.6481ZM28.8142 14.4135C30.3613 12.8666 31.5886 11.0302 32.426 9.00891L2.86244 -3.23838C3.63365 -5.10001 4.76403 -6.79145 6.18897 -8.21612L28.8142 14.4135ZM32.426 9.00891C33.2634 6.98756 33.6943 4.82117 33.6943 2.63351H1.69429C1.69429 0.618637 2.09118 -1.37666 2.86244 -3.23838L32.426 9.00891ZM33.6943 2.63351C33.6943 0.445863 33.2634 -1.72052 32.426 -3.74188L2.86244 8.50541C2.09117 6.64368 1.69429 4.64839 1.69429 2.63351H33.6943ZM32.426 -3.74188C31.5886 -5.76313 30.3613 -7.59961 28.8142 -9.14645L6.18897 13.4832C4.76403 12.0585 3.63365 10.367 2.86244 8.50541L32.426 -3.74188Z" fill="#676E85" mask="url(#path-1-inside-1_194_1688)"/>
<mask id="path-3-inside-2_194_1688" fill="white">
<path d="M1.71487 13.304C1.64265 13.3762 1.58824 13.4642 1.55596 13.5611L0.625562 16.3522C0.586924 16.4681 0.581325 16.5924 0.609393 16.7113C0.637461 16.8302 0.698087 16.939 0.784478 17.0254C0.870868 17.1118 0.979609 17.1724 1.09852 17.2005C1.21742 17.2285 1.3418 17.2229 1.4577 17.1843L4.24876 16.2539C4.34565 16.2216 4.43369 16.1672 4.5059 16.095L15.336 5.26489L12.545 2.47383L1.71487 13.304Z"/>
</mask>
<path d="M1.71487 13.304C1.64265 13.3762 1.58824 13.4642 1.55596 13.5611L0.625562 16.3522C0.586924 16.4681 0.581325 16.5924 0.609393 16.7113C0.637461 16.8302 0.698087 16.939 0.784478 17.0254C0.870868 17.1118 0.979609 17.1724 1.09852 17.2005C1.21742 17.2285 1.3418 17.2229 1.4577 17.1843L4.24876 16.2539C4.34565 16.2216 4.43369 16.1672 4.5059 16.095L15.336 5.26489L12.545 2.47383L1.71487 13.304Z" fill="#676E85"/>
<path d="M1.71487 13.304L13.0277 24.6185L13.0286 24.6176L1.71487 13.304ZM1.55596 13.5611L16.7348 18.6209L16.7353 18.6195L1.55596 13.5611ZM0.625562 16.3522L15.8043 21.4123L15.8044 21.412L0.625562 16.3522ZM1.4577 17.1843L-3.60202 2.00538L-3.6024 2.00551L1.4577 17.1843ZM4.24876 16.2539L-0.809653 1.07458L-0.810964 1.07501L4.24876 16.2539ZM4.5059 16.095L-6.80781 4.78129L-6.80869 4.78217L4.5059 16.095ZM15.336 5.26489L26.6497 16.5786L37.9634 5.2649L26.6497 -6.04882L15.336 5.26489ZM12.545 2.47383L23.8587 -8.83988L12.5449 -20.1536L1.23123 -8.83986L12.545 2.47383ZM-9.59796 1.98937C-11.4273 3.81847 -12.8055 6.04849 -13.6234 8.50268L16.7353 18.6195C15.982 20.8799 14.7127 22.9339 13.0277 24.6185L-9.59796 1.98937ZM-13.6229 8.50124L-14.5533 11.2923L15.8044 21.412L16.7348 18.6209L-13.6229 8.50124ZM-14.5532 11.2921C-15.5316 14.2269 -15.6734 17.3762 -14.9626 20.3871L16.1814 13.0355C16.836 15.8086 16.7055 18.7092 15.8043 21.4123L-14.5532 11.2921ZM-14.9626 20.3871C-14.2519 23.398 -12.7168 26.1515 -10.5292 28.3391L12.0982 5.71166C14.113 7.72644 15.5268 10.2625 16.1814 13.0355L-14.9626 20.3871ZM-10.5292 28.3391C-8.3417 30.5266 -5.5882 32.0618 -2.5773 32.7725L4.77433 1.62842C7.54742 2.28301 10.0834 3.69691 12.0982 5.71166L-10.5292 28.3391ZM-2.5773 32.7725C0.433571 33.4832 3.58291 33.3415 6.5178 32.3631L-3.6024 2.00551C-0.899314 1.10439 2.00127 0.973834 4.77433 1.62842L-2.5773 32.7725ZM6.51742 32.3632L9.30848 31.4328L-0.810964 1.07501L-3.60202 2.00538L6.51742 32.3632ZM9.30717 31.4333C11.7614 30.6154 13.9914 29.2372 15.8205 27.4078L-6.80869 4.78217C-5.12401 3.09723 -3.07007 1.82784 -0.809653 1.07458L9.30717 31.4333ZM15.8196 27.4087L26.6497 16.5786L4.02232 -6.04882L-6.80781 4.78129L15.8196 27.4087ZM26.6497 -6.04882L23.8587 -8.83988L1.23125 13.7875L4.02231 16.5786L26.6497 -6.04882ZM1.23123 -8.83986L-9.59885 1.99027L13.0286 24.6176L23.8587 13.7875L1.23123 -8.83986Z" fill="#676E85" mask="url(#path-3-inside-2_194_1688)"/>
<path d="M6.67969 16.6875L17.1973 16.6875" stroke="#676E85" stroke-linecap="round"/>
</svg>
