<svg width="33" height="33" viewBox="0 0 33 33" fill="none" xmlns="http://www.w3.org/2000/svg">
<path opacity="0.4" d="M21.7743 3.30438H10.6009C5.74758 3.30438 2.85425 6.19772 2.85425 11.051V22.2111C2.85425 27.0777 5.74758 29.9711 10.6009 29.9711H21.7609C26.6143 29.9711 29.5076 27.0777 29.5076 22.2244V11.051C29.5209 6.19772 26.6276 3.30438 21.7743 3.30438Z" fill="#83899F"/>
<path d="M22.6276 13.1844C22.5343 12.9577 22.3476 12.7711 22.1209 12.6777C22.0143 12.6377 21.8943 12.6111 21.7743 12.6111H19.2943C18.7743 12.6111 18.3609 13.0244 18.3609 13.5444C18.3609 14.0644 18.7743 14.4777 19.2943 14.4777H19.5343L16.7209 17.2911L15.3609 15.2644C15.2009 15.0377 14.9609 14.8777 14.6809 14.8511C14.3876 14.8244 14.1343 14.9177 13.9343 15.1177L9.96092 19.0911C9.60092 19.4511 9.60092 20.0377 9.96092 20.4111C10.1476 20.5977 10.3743 20.6777 10.6143 20.6777C10.8543 20.6777 11.0943 20.5844 11.2676 20.4111L14.4409 17.2377L15.8009 19.2644C15.9609 19.4911 16.2009 19.6511 16.4809 19.6777C16.7743 19.7044 17.0276 19.6111 17.2276 19.4111L20.8543 15.7844V16.0244C20.8543 16.5444 21.2676 16.9577 21.7876 16.9577C22.3076 16.9577 22.7209 16.5444 22.7209 16.0244V13.5311C22.6943 13.4111 22.6809 13.2911 22.6276 13.1844Z" fill="#1B364A"/>
</svg>
