<svg width="15" height="15" viewBox="0 0 15 15" fill="none" xmlns="http://www.w3.org/2000/svg">
<path d="M7.87386 13.5924C4.41469 13.5924 1.60303 10.7808 1.60303 7.32162C1.60303 3.86245 4.41469 1.05078 7.87386 1.05078C11.333 1.05078 14.1447 3.86245 14.1447 7.32162C14.1447 10.7808 11.333 13.5924 7.87386 13.5924ZM7.87386 1.92578C4.89886 1.92578 2.47803 4.34661 2.47803 7.32162C2.47803 10.2966 4.89886 12.7174 7.87386 12.7174C10.8489 12.7174 13.2697 10.2966 13.2697 7.32162C13.2697 4.34661 10.8489 1.92578 7.87386 1.92578Z" fill="#83899F"/>
<path fill-rule="evenodd" clip-rule="evenodd" d="M7.37837 7.98615C7.37837 8.25725 7.60319 8.48207 7.87429 8.48207C8.14539 8.48207 8.3702 8.26387 8.3702 7.98615V7.84732C8.3702 7.66218 8.44956 7.54976 8.70743 7.37784C8.91241 7.23898 9.46781 6.8621 9.46781 6.10831C9.46781 5.22888 8.75371 4.51474 7.87429 4.51474C6.99486 4.51474 6.28076 5.22888 6.28076 6.10831C6.28076 6.37941 6.50558 6.60422 6.77668 6.60422C7.04778 6.60422 7.27259 6.37941 7.27259 6.10831C7.27259 5.7777 7.54368 5.50657 7.87429 5.50657C8.2049 5.50657 8.47598 5.7777 8.47598 6.10831C8.47598 6.28022 8.39664 6.39263 8.15199 6.55793C8.14948 6.55966 8.14693 6.56141 8.14432 6.5632C7.92716 6.71239 7.37837 7.08939 7.37837 7.84732V7.98615ZM7.37842 9.63257C7.37842 9.90367 7.59662 10.1285 7.87433 10.1285C8.15205 10.1285 8.37025 9.90367 8.37025 9.63257C8.37025 9.36147 8.14543 9.13666 7.87433 9.13666C7.60323 9.13666 7.37842 9.36147 7.37842 9.63257Z" fill="#83899F"/>
</svg>
