<svg width="16" height="11" viewBox="0 0 16 11" fill="none" xmlns="http://www.w3.org/2000/svg">
<path fill-rule="evenodd" clip-rule="evenodd" d="M4.82863 10.9921C5.18761 10.9921 5.47863 10.7011 5.47863 10.3421V2.22728L7.79275 4.54141C8.0466 4.79525 8.45815 4.79525 8.71199 4.54141C8.96583 4.28756 8.96583 3.87601 8.71199 3.62217L5.29694 0.207115C5.2941 0.20417 5.29123 0.201245 5.28833 0.19834L5.27635 0.186657C5.22945 0.142073 5.17753 0.105828 5.12246 0.0779295C5.03422 0.0331297 4.93437 0.00787926 4.82863 0.00787926C4.72326 0.00787926 4.62375 0.0329504 4.53573 0.0774536C4.48077 0.105189 4.42892 0.141228 4.38206 0.185568C4.37711 0.190248 4.37224 0.195004 4.36744 0.199836C4.36504 0.202247 4.36267 0.20467 4.36032 0.207108L0.945263 3.62217C0.691423 3.87601 0.691423 4.28756 0.945263 4.54141C1.1991 4.79525 1.61066 4.79525 1.8645 4.54141L4.17863 2.22728V10.3421C4.17863 10.7011 4.46964 10.9921 4.82863 10.9921Z" fill="#676E85"/>
<path fill-rule="evenodd" clip-rule="evenodd" d="M11.6817 0.00787354C12.0406 0.00787354 12.3317 0.298888 12.3317 0.657874V8.77272L14.6458 6.45859C14.8996 6.20475 15.3112 6.20475 15.565 6.45859C15.8189 6.71244 15.8189 7.12399 15.565 7.37783L12.15 10.7929C12.1471 10.7958 12.1443 10.7988 12.1414 10.8017L12.1294 10.8133C12.0825 10.8579 12.0306 10.8942 11.9755 10.9221C11.8872 10.9669 11.7874 10.9921 11.6817 10.9921C11.5763 10.9921 11.4768 10.967 11.3888 10.9225C11.3338 10.8948 11.2819 10.8588 11.2351 10.8144C11.2301 10.8098 11.2253 10.805 11.2205 10.8002C11.2181 10.7978 11.2157 10.7953 11.2133 10.7929L7.79829 7.37783C7.54445 7.12399 7.54445 6.71244 7.79829 6.45859C8.05213 6.20475 8.46369 6.20475 8.71753 6.45859L11.0317 8.77272V0.657874C11.0317 0.298888 11.3227 0.00787354 11.6817 0.00787354Z" fill="#676E85"/>
</svg>
