<svg width="33" height="33" viewBox="0 0 33 33" fill="none" xmlns="http://www.w3.org/2000/svg">
<path opacity="0.4" d="M22.0233 3.31107H10.8499C5.9966 3.31107 3.10327 6.2044 3.10327 11.0577V22.2177C3.10327 27.0844 5.9966 29.9777 10.8499 29.9777H22.0099C26.8633 29.9777 29.7566 27.0844 29.7566 22.2311V11.0577C29.7699 6.2044 26.8766 3.31107 22.0233 3.31107Z" fill="#83899F"/>
<path d="M9.60986 25.8444C9.0632 25.8444 8.60986 25.3911 8.60986 24.8444V22.0844C8.60986 21.5377 9.0632 21.0844 9.60986 21.0844C10.1565 21.0844 10.6099 21.5377 10.6099 22.0844V24.8444C10.6099 25.4044 10.1565 25.8444 9.60986 25.8444Z" fill="#1B364A"/>
<path d="M16.4365 25.8444C15.8899 25.8444 15.4365 25.3911 15.4365 24.8444V19.3111C15.4365 18.7644 15.8899 18.3111 16.4365 18.3111C16.9832 18.3111 17.4365 18.7644 17.4365 19.3111V24.8444C17.4365 25.4044 16.9832 25.8444 16.4365 25.8444Z" fill="#1B364A"/>
<path d="M23.2632 25.8444C22.7165 25.8444 22.2632 25.3911 22.2632 24.8444V16.5511C22.2632 16.0044 22.7165 15.5511 23.2632 15.5511C23.8099 15.5511 24.2632 16.0044 24.2632 16.5511V24.8444C24.2632 25.4044 23.8232 25.8444 23.2632 25.8444Z" fill="#1B364A"/>
<path d="M24.2632 8.4044C24.2632 8.33773 24.2366 8.25773 24.2232 8.19106C24.2099 8.13773 24.1966 8.07106 24.1832 8.01773C24.1566 7.9644 24.1166 7.9244 24.0899 7.87106C24.0499 7.81773 24.0099 7.75106 23.9566 7.71106C23.9432 7.69773 23.9432 7.6844 23.9299 7.6844C23.8899 7.65773 23.8499 7.6444 23.8099 7.61773C23.7566 7.57773 23.6899 7.53773 23.6232 7.51106C23.5566 7.4844 23.4899 7.4844 23.4232 7.47106C23.3699 7.45773 23.3299 7.4444 23.2766 7.4444H19.3699C18.8232 7.4444 18.3699 7.89773 18.3699 8.4444C18.3699 8.99106 18.8232 9.4444 19.3699 9.4444H21.0366C17.8632 12.7777 13.8632 15.1244 9.36991 16.2577C8.83658 16.3911 8.50325 16.9377 8.63658 17.4711C8.74325 17.9244 9.15658 18.2311 9.60991 18.2311C9.68991 18.2311 9.76991 18.2177 9.84991 18.2044C14.6099 17.0177 18.8632 14.5511 22.2632 11.0577V12.3511C22.2632 12.8977 22.7166 13.3511 23.2632 13.3511C23.8099 13.3511 24.2632 12.8977 24.2632 12.3511V8.4444C24.2632 8.43106 24.2632 8.41773 24.2632 8.4044Z" fill="#1B364A"/>
</svg>
