<svg width="13" height="12" viewBox="0 0 13 12" fill="none" xmlns="http://www.w3.org/2000/svg">
<path d="M6.54773 11.375C3.58273 11.375 1.17273 8.965 1.17273 6C1.17273 3.035 3.58273 0.625 6.54773 0.625C9.51273 0.625 11.9227 3.035 11.9227 6C11.9227 8.965 9.51273 11.375 6.54773 11.375ZM6.54773 1.375C3.99773 1.375 1.92273 3.45 1.92273 6C1.92273 8.55 3.99773 10.625 6.54773 10.625C9.09773 10.625 11.1727 8.55 11.1727 6C11.1727 3.45 9.09773 1.375 6.54773 1.375Z" fill="#83899F"/>
<path d="M8.40274 7.965C8.33774 7.965 8.27274 7.95 8.21274 7.91L6.66274 6.985C6.27774 6.755 5.99274 6.25 5.99274 5.805V3.755C5.99274 3.55 6.16274 3.38 6.36774 3.38C6.57274 3.38 6.74274 3.55 6.74274 3.755V5.805C6.74274 5.985 6.89274 6.25001 7.04774 6.34L8.59774 7.265C8.77774 7.37 8.83274 7.60001 8.72774 7.78C8.65274 7.9 8.52774 7.965 8.40274 7.965Z" fill="#83899F"/>
</svg>
