<svg width="20" height="21" viewBox="0 0 20 21" fill="none" xmlns="http://www.w3.org/2000/svg">
<path d="M18.1336 13.6116L12.8002 4.01157C12.0836 2.7199 11.0919 2.01157 10.0002 2.01157C8.90856 2.01157 7.91689 2.7199 7.20023 4.01157L1.86689 13.6116C1.19189 14.8366 1.11689 16.0116 1.65856 16.9366C2.20023 17.8616 3.26689 18.3699 4.66689 18.3699H15.3336C16.7336 18.3699 17.8002 17.8616 18.3419 16.9366C18.8836 16.0116 18.8086 14.8282 18.1336 13.6116ZM9.37523 7.8449C9.37523 7.50323 9.65856 7.2199 10.0002 7.2199C10.3419 7.2199 10.6252 7.50323 10.6252 7.8449V12.0116C10.6252 12.3532 10.3419 12.6366 10.0002 12.6366C9.65856 12.6366 9.37523 12.3532 9.37523 12.0116V7.8449ZM10.5919 15.1032C10.5502 15.1366 10.5086 15.1699 10.4669 15.2032C10.4169 15.2366 10.3669 15.2616 10.3169 15.2782C10.2669 15.3032 10.2169 15.3199 10.1586 15.3282C10.1086 15.3366 10.0502 15.3449 10.0002 15.3449C9.95023 15.3449 9.89189 15.3366 9.83356 15.3282C9.78356 15.3199 9.73356 15.3032 9.68356 15.2782C9.63356 15.2616 9.58356 15.2366 9.53356 15.2032C9.49189 15.1699 9.45023 15.1366 9.40856 15.1032C9.25856 14.9449 9.16689 14.7282 9.16689 14.5116C9.16689 14.2949 9.25856 14.0782 9.40856 13.9199C9.45023 13.8866 9.49189 13.8532 9.53356 13.8199C9.58356 13.7866 9.63356 13.7616 9.68356 13.7449C9.73356 13.7199 9.78356 13.7032 9.83356 13.6949C9.94189 13.6699 10.0586 13.6699 10.1586 13.6949C10.2169 13.7032 10.2669 13.7199 10.3169 13.7449C10.3669 13.7616 10.4169 13.7866 10.4669 13.8199C10.5086 13.8532 10.5502 13.8866 10.5919 13.9199C10.7419 14.0782 10.8336 14.2949 10.8336 14.5116C10.8336 14.7282 10.7419 14.9449 10.5919 15.1032Z" fill="#D86962"/>
</svg>
